<svg width="270" height="240" viewBox="0 0 270 240" fill="none" xmlns="http://www.w3.org/2000/svg">
<path d="M0 20C0 8.95432 8.95431 0 20 0H250C261.046 0 270 8.95431 270 20V134.594C270 145.639 261.046 154.594 250 154.594H158.684H117.217C109.309 154.594 102.143 159.254 98.9356 166.482L91.5224 183.19C83.6413 200.952 57.6171 198.176 53.6602 179.151L51.8653 170.521C49.9357 161.244 41.7604 154.594 32.2843 154.594H20C8.95431 154.594 0 145.64 0 134.594V20Z" fill="#FFBA08"/>
<path d="M130.288 53.7212C129.75 53.7191 129.228 53.5491 128.795 53.2358L125.199 50.6695C124.901 50.4554 124.541 50.3401 124.172 50.3401C123.802 50.3401 123.442 50.4554 123.144 50.6695L119.548 53.2358C119.114 53.5453 118.592 53.712 118.056 53.7121C117.52 53.7121 116.997 53.5454 116.564 53.2359C116.13 52.9264 115.807 52.49 115.641 51.9893C115.476 51.4885 115.476 50.949 115.641 50.4482L117.015 46.2958C117.13 45.9508 117.13 45.5789 117.016 45.2338C116.902 44.8886 116.679 44.5879 116.38 44.3751L112.784 41.8088C112.35 41.4993 112.027 41.0628 111.862 40.562C111.696 40.0612 111.696 39.5217 111.862 39.0209C112.027 38.5201 112.35 38.0836 112.784 37.7741C113.217 37.4646 113.74 37.2979 114.276 37.2979H118.721C119.09 37.2986 119.45 37.184 119.749 36.9707C120.048 36.7574 120.27 36.4565 120.384 36.1112L121.757 31.9587C121.923 31.4579 122.246 31.0214 122.679 30.7118C123.113 30.4022 123.635 30.2355 124.172 30.2355C124.708 30.2355 125.23 30.4022 125.664 30.7118C126.098 31.0214 126.42 31.4579 126.586 31.9587L127.959 36.1112C128.073 36.4565 128.295 36.7574 128.594 36.9707C128.893 37.184 129.253 37.2986 129.622 37.2979H134.067C134.603 37.2979 135.126 37.4646 135.559 37.7742C135.993 38.0837 136.316 38.5201 136.481 39.0209C136.647 39.5217 136.647 40.0612 136.481 40.562C136.316 41.0628 135.993 41.4993 135.559 41.8088L131.963 44.3751C131.664 44.5879 131.441 44.8886 131.327 45.2338C131.213 45.5789 131.213 45.9508 131.328 46.2958L132.702 50.4482C132.874 50.9485 132.877 51.4898 132.71 51.992C132.544 52.4941 132.218 52.9303 131.78 53.2358C131.347 53.5491 130.825 53.719 130.288 53.7212Z" fill="#7C96F7"/>
<path d="M98.6141 53.7212C98.1025 53.7191 97.6047 53.5491 97.193 53.2358L93.7682 50.6695C93.484 50.4554 93.1413 50.3401 92.7894 50.3401C92.4376 50.3401 92.0948 50.4554 91.8107 50.6695L88.3859 53.2358C87.9729 53.5453 87.4754 53.712 86.9649 53.7121C86.4544 53.7121 85.9569 53.5454 85.5439 53.2359C85.1308 52.9264 84.8233 52.49 84.6655 51.9893C84.5077 51.4885 84.5076 50.949 84.6653 50.4482L85.9735 46.2958C86.0829 45.9508 86.0833 45.5789 85.9746 45.2338C85.8659 44.8886 85.6537 44.5879 85.3687 44.3751L81.9439 41.8088C81.5308 41.4993 81.2234 41.0628 81.0656 40.562C80.9078 40.0612 80.9078 39.5217 81.0656 39.0209C81.2233 38.5201 81.5308 38.0836 81.9438 37.7741C82.3569 37.4646 82.8543 37.2979 83.3649 37.2979H87.5982C87.95 37.2986 88.293 37.184 88.5776 36.9707C88.8622 36.7574 89.0738 36.4565 89.182 36.1112L90.49 31.9587C90.6477 31.4579 90.9552 31.0214 91.3682 30.7118C91.7813 30.4022 92.2788 30.2355 92.7894 30.2355C93.3 30.2355 93.7975 30.4022 94.2106 30.7118C94.6237 31.0214 94.9311 31.4579 95.0889 31.9587L96.3969 36.1112C96.505 36.4565 96.7166 36.7574 97.0012 36.9707C97.2858 37.184 97.6288 37.2986 97.9806 37.2979H102.214C102.724 37.2979 103.222 37.4646 103.635 37.7742C104.048 38.0837 104.355 38.5201 104.513 39.0209C104.671 39.5217 104.671 40.0612 104.513 40.562C104.355 41.0628 104.048 41.4993 103.635 41.8088L100.21 44.3751C99.9251 44.5879 99.713 44.8886 99.6043 45.2338C99.4955 45.5789 99.4959 45.9508 99.6053 46.2958L100.913 50.4482C101.077 50.9485 101.08 51.4898 100.922 51.992C100.763 52.4941 100.453 52.9303 100.035 53.2358C99.6234 53.5491 99.1257 53.719 98.6141 53.7212Z" fill="#7C96F7"/>
<path d="M66.641 53.7212C66.1293 53.7191 65.6316 53.5491 65.2198 53.2358L61.795 50.6695C61.5109 50.4554 61.1681 50.3401 60.8163 50.3401C60.4644 50.3401 60.1217 50.4554 59.8375 50.6695L56.4127 53.2358C55.9997 53.5453 55.5023 53.712 54.9917 53.7121C54.4812 53.7121 53.9838 53.5454 53.5707 53.2359C53.1577 52.9264 52.8502 52.49 52.6924 51.9893C52.5346 51.4885 52.5345 50.949 52.6922 50.4482L54.0004 46.2958C54.1098 45.9508 54.1101 45.5789 54.0014 45.2338C53.8927 44.8886 53.6805 44.5879 53.3955 44.3751L49.9707 41.8088C49.5577 41.4993 49.2502 41.0628 49.0925 40.562C48.9347 40.0612 48.9347 39.5217 49.0924 39.0209C49.2502 38.5201 49.5577 38.0836 49.9707 37.7741C50.3837 37.4646 50.8812 37.2979 51.3917 37.2979H55.6251C55.9769 37.2986 56.3198 37.184 56.6044 36.9707C56.8891 36.7574 57.1007 36.4565 57.2088 36.1112L58.5168 31.9587C58.6746 31.4579 58.982 31.0214 59.3951 30.7118C59.8082 30.4022 60.3057 30.2355 60.8163 30.2355C61.3269 30.2355 61.8244 30.4022 62.2374 30.7118C62.6505 31.0214 62.958 31.4579 63.1157 31.9587L64.4237 36.1112C64.5318 36.4565 64.7435 36.7574 65.0281 36.9707C65.3127 37.184 65.6556 37.2986 66.0074 37.2979H70.2408C70.7513 37.2979 71.2488 37.4646 71.6618 37.7742C72.0748 38.0837 72.3822 38.5201 72.54 39.0209C72.6978 39.5217 72.6978 40.0612 72.54 40.562C72.3822 41.0628 72.0748 41.4993 71.6618 41.8088L68.237 44.3751C67.952 44.5879 67.7398 44.8886 67.6311 45.2338C67.5224 45.5789 67.5228 45.9508 67.6321 46.2958L68.9403 50.4482C69.1038 50.9485 69.1067 51.4898 68.9485 51.992C68.7903 52.4941 68.4794 52.9303 68.0619 53.2358C67.6502 53.5491 67.1526 53.719 66.641 53.7212Z" fill="#7C96F7"/>
<path d="M34.6669 53.7212C34.1552 53.719 33.6575 53.54 33.2457 53.2103L29.8209 50.5089C29.5368 50.2837 29.194 50.1623 28.8422 50.1623C28.4903 50.1623 28.1475 50.2837 27.8634 50.5089L24.4386 53.2103C24.0256 53.5361 23.5282 53.7116 23.0176 53.7116C22.5071 53.7116 22.0096 53.5362 21.5966 53.2104C21.1835 52.8847 20.8761 52.4253 20.7183 51.8982C20.5604 51.371 20.5604 50.8032 20.7181 50.276L22.0263 45.9052C22.1356 45.542 22.136 45.1506 22.0273 44.7873C21.9186 44.424 21.7064 44.1075 21.4214 43.8835L17.9966 41.1821C17.5836 40.8563 17.2761 40.3969 17.1183 39.8698C16.9606 39.3426 16.9606 38.7748 17.1183 38.2476C17.2761 37.7204 17.5835 37.261 17.9966 36.9352C18.4096 36.6094 18.9071 36.4339 19.4176 36.4339H23.651C24.0028 36.4346 24.3457 36.314 24.6303 36.0896C24.9149 35.8651 25.1266 35.5483 25.2347 35.1848L26.5427 30.8139C26.7004 30.2867 27.0079 29.8272 27.421 29.5014C27.834 29.1755 28.3315 29 28.8421 29C29.3528 29 29.8502 29.1755 30.2633 29.5014C30.6764 29.8272 30.9838 30.2867 31.1416 30.8139L32.4496 35.1848C32.5577 35.5483 32.7693 35.8651 33.054 36.0896C33.3386 36.314 33.6815 36.4346 34.0333 36.4339H38.2667C38.7772 36.434 39.2746 36.6094 39.6877 36.9353C40.1007 37.2611 40.4081 37.7205 40.5659 38.2476C40.7236 38.7748 40.7236 39.3426 40.5659 39.8698C40.4081 40.3969 40.1007 40.8563 39.6876 41.1821L36.2629 43.8835C35.9778 44.1075 35.7657 44.424 35.657 44.7873C35.5483 45.1506 35.5486 45.542 35.658 45.9052L36.9662 50.276C37.1297 50.8026 37.1326 51.3725 36.9744 51.901C36.8162 52.4295 36.5053 52.8887 36.0878 53.2103C35.6761 53.54 35.1785 53.7189 34.6669 53.7212Z" fill="#7C96F7"/>
<rect x="16.5786" y="64.7017" width="236.842" height="13.803" rx="6.90151" fill="white"/>
<rect x="16.5786" y="126.815" width="236.842" height="13.803" rx="6.90151" fill="white"/>
<rect x="166.974" y="85.4061" width="86.4474" height="13.803" rx="6.90151" fill="white"/>
<rect x="16.5786" y="106.111" width="88.8158" height="13.803" rx="6.90151" fill="white"/>
<rect x="113.685" y="106.111" width="139.737" height="13.803" rx="6.90151" fill="white"/>
<rect x="16.5786" y="85.4061" width="142.105" height="13.803" rx="6.90151" fill="white"/>
</svg>
