<svg width="24" height="25" viewBox="0 0 24 25" fill="none" xmlns="http://www.w3.org/2000/svg">
<path d="M22.68 1.64599C21.7995 0.765467 20.74 0.325806 19.5003 0.325806H4.50011C3.26041 0.325806 2.20089 0.765467 1.32037 1.64599C0.439845 2.52652 0.000183105 3.58603 0.000183105 4.82573V19.8259C0.000183105 21.0656 0.439845 22.1251 1.32037 23.0056C2.20089 23.8861 3.26041 24.3258 4.50011 24.3258H8.00058C8.22882 24.3258 8.4006 24.3174 8.51592 24.3018C8.6501 24.2749 8.7712 24.2033 8.85948 24.0988C8.97361 23.9786 9.03127 23.8045 9.03127 23.5762L9.02286 22.5131C9.01805 21.8356 9.01565 21.2998 9.01565 20.9034L8.65527 20.9659C8.42703 21.0079 8.13873 21.0259 7.78916 21.0211C7.4248 21.0144 7.06161 20.9778 6.70322 20.9118C6.3217 20.8414 5.96256 20.6807 5.65572 20.4433C5.33438 20.2002 5.0947 19.865 4.9686 19.4823L4.81244 19.1219C4.68081 18.8377 4.51545 18.5703 4.31992 18.3255C4.09648 18.0336 3.86945 17.8366 3.64001 17.7321L3.53189 17.654C3.4565 17.6 3.38793 17.5371 3.32768 17.4666C3.27013 17.4012 3.22275 17.3275 3.18713 17.248C3.1559 17.1747 3.18232 17.1146 3.26521 17.0678C3.3493 17.0197 3.49946 16.9969 3.71929 16.9969L4.03162 17.045C4.23943 17.0858 4.49771 17.2107 4.80403 17.4186C5.11403 17.6299 5.37298 17.9077 5.56202 18.2318C5.80228 18.6583 6.09058 18.9838 6.42933 19.2084C6.76809 19.4319 7.10925 19.5448 7.45281 19.5448C7.79637 19.5448 8.09308 19.5184 8.34414 19.4667C8.58693 19.4165 8.82285 19.3375 9.04688 19.2313C9.14058 18.5345 9.39525 17.9964 9.81209 17.6216C9.27197 17.5686 8.73666 17.4746 8.2108 17.3405C7.69762 17.1995 7.20407 16.9949 6.74166 16.7314C6.25785 16.468 5.83051 16.1121 5.48394 15.6839C5.15119 15.2671 4.8773 14.7205 4.66348 14.0442C4.45086 13.3667 4.34394 12.5847 4.34394 11.6993C4.34394 10.4392 4.75478 9.3665 5.57764 8.47997C5.19324 7.53337 5.22927 6.47026 5.68695 5.29422C5.98967 5.19932 6.43774 5.2702 7.03117 5.50444C7.62459 5.73869 8.05945 5.9393 8.33574 6.10507C8.61203 6.27325 8.83306 6.4138 9.00003 6.52792C9.97663 6.25614 10.9859 6.11952 11.9996 6.12189C13.0315 6.12189 14.0309 6.25763 15.0003 6.52792L15.5938 6.15312C16.0502 5.87906 16.5317 5.64898 17.0317 5.466C17.5842 5.25698 18.0047 5.20052 18.2978 5.29422C18.7663 6.47146 18.8071 7.53337 18.4215 8.48117C19.2444 9.3665 19.6564 10.4392 19.6564 11.7005C19.6564 12.5859 19.5495 13.3703 19.3357 14.0514C19.1231 14.7337 18.8468 15.2803 18.508 15.6923C18.1553 16.115 17.7262 16.4675 17.2431 16.7314C16.7386 17.0125 16.2484 17.2155 15.7739 17.3405C15.2481 17.4751 14.7128 17.5695 14.1727 17.6228C14.7132 18.0913 14.9847 18.83 14.9847 19.8403V23.5762C14.9847 23.7528 15.0099 23.8958 15.0628 24.0051C15.0871 24.0577 15.1217 24.105 15.1647 24.144C15.2076 24.183 15.2579 24.2129 15.3127 24.2321C15.428 24.2729 15.5289 24.2994 15.6178 24.309C15.7067 24.321 15.834 24.3246 15.9998 24.3246H19.5003C20.74 24.3246 21.7995 23.8849 22.68 23.0044C23.5593 22.1251 24.0002 21.0644 24.0002 19.8247V4.82573C24.0002 3.58603 23.5593 2.52652 22.6788 1.64599H22.68Z" fill="#545454"/>
</svg>
