<svg width="24" height="25" viewBox="0 0 24 25" fill="none" xmlns="http://www.w3.org/2000/svg">
<path d="M16.0002 12.3258C16.0002 11.2216 15.6096 10.2789 14.8283 9.49768C14.0471 8.71643 13.1044 8.32581 12.0002 8.32581C10.896 8.32581 9.95331 8.71643 9.17206 9.49768C8.39081 10.2789 8.00018 11.2216 8.00018 12.3258C8.00018 13.43 8.39081 14.3727 9.17206 15.1539C9.95331 15.9352 10.896 16.3258 12.0002 16.3258C13.1044 16.3258 14.0471 15.9352 14.8283 15.1539C15.6096 14.3727 16.0002 13.43 16.0002 12.3258ZM18.1564 12.3258C18.1564 14.0341 17.5575 15.4873 16.3596 16.6852C15.1616 17.8831 13.7085 18.4821 12.0002 18.4821C10.2919 18.4821 8.83873 17.8831 7.64081 16.6852C6.44289 15.4873 5.84393 14.0341 5.84393 12.3258C5.84393 10.6175 6.44289 9.16435 7.64081 7.96643C8.83873 6.76851 10.2919 6.16956 12.0002 6.16956C13.7085 6.16956 15.1616 6.76851 16.3596 7.96643C17.5575 9.16435 18.1564 10.6175 18.1564 12.3258ZM19.8439 5.91956C19.8439 6.31539 19.7033 6.65393 19.4221 6.93518C19.1408 7.21643 18.8023 7.35706 18.4064 7.35706C18.0106 7.35706 17.6721 7.21643 17.3908 6.93518C17.1096 6.65393 16.9689 6.31539 16.9689 5.91956C16.9689 5.52372 17.1096 5.18518 17.3908 4.90393C17.6721 4.62268 18.0106 4.48206 18.4064 4.48206C18.8023 4.48206 19.1408 4.62268 19.4221 4.90393C19.7033 5.18518 19.8439 5.52372 19.8439 5.91956ZM12.0002 2.48206C11.9273 2.48206 11.5288 2.47945 10.8049 2.47424C10.0809 2.46903 9.53143 2.46903 9.15643 2.47424C8.78143 2.47945 8.27883 2.49508 7.64862 2.52112C7.01841 2.54716 6.48195 2.59924 6.03925 2.67737C5.59654 2.75549 5.22414 2.85185 4.92206 2.96643C4.40122 3.17476 3.94289 3.47685 3.54706 3.87268C3.15122 4.26851 2.84914 4.72685 2.64081 5.24768C2.52622 5.54976 2.42987 5.92216 2.35175 6.36487C2.27362 6.80758 2.22154 7.34403 2.1955 7.97424C2.16945 8.60445 2.15383 9.10706 2.14862 9.48206C2.14341 9.85706 2.14341 10.4065 2.14862 11.1305C2.15383 11.8545 2.15643 12.2529 2.15643 12.3258C2.15643 12.3987 2.15383 12.7972 2.14862 13.5211C2.14341 14.2451 2.14341 14.7946 2.14862 15.1696C2.15383 15.5446 2.16945 16.0472 2.1955 16.6774C2.22154 17.3076 2.27362 17.844 2.35175 18.2867C2.42987 18.7295 2.52622 19.1018 2.64081 19.4039C2.84914 19.9248 3.15122 20.3831 3.54706 20.7789C3.94289 21.1748 4.40122 21.4768 4.92206 21.6852C5.22414 21.7998 5.59654 21.8961 6.03925 21.9742C6.48195 22.0524 7.01841 22.1045 7.64862 22.1305C8.27883 22.1565 8.78143 22.1722 9.15643 22.1774C9.53143 22.1826 10.0809 22.1826 10.8049 22.1774C11.5288 22.1722 11.9273 22.1696 12.0002 22.1696C12.0731 22.1696 12.4715 22.1722 13.1955 22.1774C13.9195 22.1826 14.4689 22.1826 14.8439 22.1774C15.2189 22.1722 15.7215 22.1565 16.3517 22.1305C16.982 22.1045 17.5184 22.0524 17.9611 21.9742C18.4038 21.8961 18.7762 21.7998 19.0783 21.6852C19.5991 21.4768 20.0575 21.1748 20.4533 20.7789C20.8491 20.3831 21.1512 19.9248 21.3596 19.4039C21.4741 19.1018 21.5705 18.7295 21.6486 18.2867C21.7267 17.844 21.7788 17.3076 21.8049 16.6774C21.8309 16.0472 21.8465 15.5446 21.8517 15.1696C21.857 14.7946 21.857 14.2451 21.8517 13.5211C21.8465 12.7972 21.8439 12.3987 21.8439 12.3258C21.8439 12.2529 21.8465 11.8545 21.8517 11.1305C21.857 10.4065 21.857 9.85706 21.8517 9.48206C21.8465 9.10706 21.8309 8.60445 21.8049 7.97424C21.7788 7.34403 21.7267 6.80758 21.6486 6.36487C21.5705 5.92216 21.4741 5.54976 21.3596 5.24768C21.1512 4.72685 20.8491 4.26851 20.4533 3.87268C20.0575 3.47685 19.5991 3.17476 19.0783 2.96643C18.7762 2.85185 18.4038 2.75549 17.9611 2.67737C17.5184 2.59924 16.982 2.54716 16.3517 2.52112C15.7215 2.49508 15.2189 2.47945 14.8439 2.47424C14.4689 2.46903 13.9195 2.46903 13.1955 2.47424C12.4715 2.47945 12.0731 2.48206 12.0002 2.48206ZM24.0002 12.3258C24.0002 14.7112 23.9741 16.3623 23.9221 17.2789C23.8179 19.4456 23.1721 21.1227 21.9846 22.3102C20.7971 23.4977 19.12 24.1435 16.9533 24.2477C16.0366 24.2998 14.3856 24.3258 12.0002 24.3258C9.61477 24.3258 7.96372 24.2998 7.04706 24.2477C4.88039 24.1435 3.20331 23.4977 2.01581 22.3102C0.828308 21.1227 0.182475 19.4456 0.0783081 17.2789C0.0262248 16.3623 0.000183105 14.7112 0.000183105 12.3258C0.000183105 9.94039 0.0262248 8.28935 0.0783081 7.37268C0.182475 5.20601 0.828308 3.52893 2.01581 2.34143C3.20331 1.15393 4.88039 0.508097 7.04706 0.403931C7.96372 0.351847 9.61477 0.325806 12.0002 0.325806C14.3856 0.325806 16.0366 0.351847 16.9533 0.403931C19.12 0.508097 20.7971 1.15393 21.9846 2.34143C23.1721 3.52893 23.8179 5.20601 23.9221 7.37268C23.9741 8.28935 24.0002 9.94039 24.0002 12.3258Z" fill="#545454"/>
</svg>
