<svg width="24" height="25" viewBox="0 0 24 25" fill="none" xmlns="http://www.w3.org/2000/svg">
<path d="M4.70569 0.331818C2.12048 0.331818 0.00463867 2.44761 0.00463867 5.03287V19.621C0.00463867 22.2063 2.12043 24.3213 4.70569 24.3213H19.2939C21.8791 24.3213 23.9942 22.2063 23.9942 19.621V5.03287C23.9942 2.44766 21.8791 0.331818 19.2939 0.331818H4.70569ZM5.88807 4.29057C7.12762 4.29057 7.89113 5.10431 7.9147 6.17397C7.9147 7.22001 7.12757 8.05663 5.86409 8.05663H5.84084C4.62488 8.05663 3.83895 7.22006 3.83895 6.17397C3.83895 5.10434 4.64866 4.29057 5.88805 4.29057H5.88807ZM16.57 9.29001C18.9539 9.29001 20.741 10.8481 20.741 14.1965V20.4472H17.1181V14.6156C17.1181 13.1501 16.5938 12.1503 15.2827 12.1503C14.2818 12.1503 13.6852 12.8242 13.4232 13.4752C13.3275 13.7081 13.304 14.0333 13.304 14.3591V20.4472H9.68115C9.68115 20.4472 9.72869 10.5685 9.68115 9.54566H13.3048V11.0894C13.7862 10.3466 14.6474 9.28998 16.57 9.28998V9.29001ZM4.05265 9.54645H7.67552V20.4473H4.05265V9.54645Z" fill="#545454"/>
</svg>
