<svg width="725" height="547" viewBox="0 0 725 547" fill="none" xmlns="http://www.w3.org/2000/svg">
<path d="M217.986 75.9009L222.36 68.2463L200.489 63.8723L198.302 74.8074L201.583 83.5555L217.986 75.9009Z" fill="#FFBA08"/>
<path opacity="0.2" d="M217.986 75.9009L222.36 68.2463L200.489 63.8723L198.302 74.8074L201.583 83.5555L217.986 75.9009Z" fill="black"/>
<path d="M205.41 70.9796C221.112 70.9796 233.841 58.2504 233.841 42.5482C233.841 26.846 221.112 14.1168 205.41 14.1168C189.708 14.1168 176.979 26.846 176.979 42.5482C176.979 58.2504 189.708 70.9796 205.41 70.9796Z" fill="#FFB8B8"/>
<path d="M181.353 42.5486L158.389 80.8217L192.288 100.505L209.784 60.0449L181.353 42.5486Z" fill="#FFB8B8"/>
<path d="M179.166 87.3823L149.641 75.3536C149.641 75.3536 104.807 83.0082 100.433 97.2239C96.0586 111.44 96.0586 226.259 96.0586 226.259C96.0586 226.259 85.1235 254.69 100.433 255.784C100.433 255.784 96.0586 262.345 100.433 263.438C104.807 264.532 149.641 263.438 167.137 268.906C184.633 274.373 219.626 278.747 219.626 273.28V263.438C219.626 263.438 227.28 255.784 222.906 242.661C218.532 229.539 213.065 201.108 213.065 201.108C213.065 201.108 245.87 128.936 242.589 120.188C239.309 111.44 199.257 84.3888 199.257 84.3888L179.166 87.3823Z" fill="#FFBA08"/>
<path d="M111.368 226.259L112.461 235.007L127.771 216.418H122.303L111.368 226.259Z" fill="#FFB8B8"/>
<path d="M179.166 87.3823L147.454 79.7277C147.454 79.7277 140.893 74.2601 140.893 67.699C140.893 61.1379 150.734 51.2963 157.295 44.7352C157.867 44.1495 158.551 43.6857 159.306 43.3718C160.062 43.0579 160.873 42.9004 161.691 42.909C168.187 42.8543 176.06 51.3728 176.06 51.3728L167.323 65.9493L166.929 66.5945L179.166 87.3823Z" fill="#FFBA08"/>
<path d="M203.609 74.3242L222.359 68.2457C222.359 68.2457 228.374 91.7563 221.813 92.8498C215.252 93.9434 179.166 90.6628 179.166 90.6628L203.609 74.3242Z" fill="#FFBA08"/>
<path d="M102.62 257.971L88.404 338.891C88.404 338.891 82.9364 348.732 85.1235 353.106C87.3105 357.48 88.404 357.48 85.1235 359.668C81.8429 361.855 77.4689 359.668 78.5624 365.135C79.2177 368.377 79.5837 371.67 79.6559 374.977L49.0375 479.954C49.0375 479.954 29.3542 488.702 43.5699 494.17C57.7856 499.637 72.0013 504.012 75.2818 498.544C78.5624 493.076 75.2818 486.515 75.2818 486.515L125.584 366.229C125.584 366.229 133.238 355.293 133.238 348.732C133.238 342.171 158.389 295.15 158.389 295.15C158.389 295.15 159.482 342.171 160.576 345.452C161.669 348.732 158.389 355.293 158.389 359.668C158.389 364.042 156.202 364.042 158.389 366.229C160.576 368.416 160.576 393.566 160.576 393.566C160.576 393.566 147.454 490.889 155.108 491.983C162.763 493.076 184.633 490.889 184.633 486.515C184.633 482.141 181.353 481.048 181.353 481.048L195.568 397.941C195.568 397.941 194.475 392.473 196.662 388.099C198.849 383.725 198.849 383.725 198.849 381.538C198.849 379.351 197.755 378.257 198.849 377.164C199.563 376.22 199.947 375.067 199.942 373.883C199.942 373.883 197.755 367.322 198.849 366.229C199.942 365.135 224 283.121 216.345 273.28C208.691 263.438 102.62 257.971 102.62 257.971Z" fill="#2F2E41"/>
<path d="M156.202 488.702L148.547 506.198C148.547 506.198 131.051 525.882 144.173 530.256C157.295 534.63 161.67 533.536 161.67 533.536C161.67 533.536 167.137 534.63 167.137 536.817C167.137 539.004 210.878 555.406 214.158 541.191C217.439 526.975 180.259 500.731 180.259 500.731V487.609L156.202 488.702Z" fill="#2F2E41"/>
<path d="M71.8539 496.801L73.5098 515.826C73.5098 515.826 83.7906 540.072 69.9587 540.019C56.1268 539.966 52.3324 537.531 52.3324 537.531C52.3324 537.531 46.8023 536.818 46.1027 538.89C45.4031 540.962 -1.28605 542.511 0.153016 527.993C1.59208 513.475 45.213 500.502 45.213 500.502L49.4104 488.07L71.8539 496.801Z" fill="#2F2E41"/>
<path d="M177.718 50.3313C179.474 50.2135 180.645 48.2992 181.131 46.4779C181.617 44.6566 181.741 42.6612 182.733 41.0961C185.452 36.8076 192.52 38.5398 195.391 34.3677C197.156 31.8018 196.786 27.6238 199.335 25.9912C200.944 24.9602 202.996 25.4912 204.769 26.1389C211.642 28.6687 217.988 32.448 223.486 37.286L225.769 35.4269L228.621 41.1288C229.727 39.7953 231.86 40.8292 232.788 42.3116C233.715 43.794 234.166 45.6886 235.489 46.7683C237.598 48.4893 240.892 47.0317 242.17 44.5361C243.447 42.0406 243.236 38.9898 242.794 36.1804C241.69 29.1421 239.339 22.3572 235.851 16.1452L238.461 14.5795L235.087 14.0977L236.378 11.1684L232.844 11.1272L234.24 8.62317C229.489 10.2534 224.58 7.26749 220.043 5.04141C212.453 1.31785 203.915 -0.469083 195.674 0.914201C191.452 1.59974 187.419 3.15721 183.832 5.48739C180.244 7.81756 177.182 10.8694 174.839 14.4483C171.246 20.0974 169.171 28.3004 170.967 35.0655C172.6 41.2147 179.728 42.1718 177.718 50.3313Z" fill="#2F2E41"/>
<path d="M106.994 92.8499C106.994 92.8499 100.433 91.7563 96.0586 100.504C91.6845 109.253 58.8791 179.238 75.2818 201.108C91.6845 222.978 106.994 229.539 106.994 229.539L110.274 230.633L126.677 213.136L121.209 205.482C121.209 205.482 121.209 197.827 116.835 196.734C112.461 195.64 112.461 198.921 111.368 194.547C110.274 190.173 115.742 193.453 110.274 189.079C104.807 184.705 109.181 182.518 109.181 182.518L106.994 92.8499Z" fill="#FFBA08"/>
<path d="M222.906 238.835L221.813 247.583L206.504 228.993H211.971L222.906 238.835Z" fill="#FFB8B8"/>
<path d="M221.266 116.36C221.266 116.36 236.575 108.706 240.949 117.454C245.323 126.202 275.395 191.813 258.992 213.683C242.59 235.554 227.28 242.115 227.28 242.115L224 243.208L207.597 225.712L213.065 218.057C213.065 218.057 213.065 210.403 217.439 209.309C221.813 208.216 221.813 211.496 222.906 207.122C224 202.748 218.532 206.029 224 201.655C229.467 197.281 225.093 195.093 225.093 195.093L221.266 116.36Z" fill="#FFBA08"/>
<path opacity="0.2" d="M117.382 136.044L105.354 184.159L119.569 201.655L113.008 179.785L117.382 136.044Z" fill="black"/>
<path opacity="0.2" d="M176.06 51.3728L167.323 65.9493C161.833 64.0466 161.374 51.3072 161.691 42.909C168.187 42.8543 176.06 51.3728 176.06 51.3728Z" fill="black"/>
<path d="M714.694 143.043H300.84C295.317 143.043 290.84 147.521 290.84 153.043V353.934C290.84 359.456 295.317 363.934 300.84 363.934H714.694C720.216 363.934 724.694 359.456 724.694 353.933V153.043C724.694 147.521 720.216 143.043 714.694 143.043Z" fill="#3F3D56"/>
<path d="M413.485 217.422H369.548V221.084H413.485V217.422Z" fill="#FFBA08"/>
<path d="M472.068 217.422H428.131V221.084H472.068V217.422Z" fill="#FFBA08"/>
<path d="M557.196 251.291H513.259V254.952H557.196V251.291Z" fill="#FFBA08"/>
<path d="M616.695 251.291H572.757V254.952H616.695V251.291Z" fill="#FFBA08"/>
<path d="M616.695 217.422H487.629V221.084H616.695V217.422Z" fill="#FFBA08"/>
<path d="M498.613 251.291H369.548V254.952H498.613V251.291Z" fill="#FFBA08"/>
<path d="M498.613 285.159H369.548V288.82H498.613V285.159Z" fill="#FFBA08"/>
<path d="M616.695 285.159H526.989V288.82H616.695V285.159Z" fill="#FFBA08"/>
<path d="M357.199 232.879L341.741 217.422L357.199 201.965L360.291 205.057L347.926 217.422L360.291 229.787L357.199 232.879Z" fill="#FFBA08"/>
<path d="M658.335 304.278L655.242 301.186L667.608 288.819L655.242 276.455L658.335 273.362L673.793 288.819L658.335 304.278Z" fill="#FFBA08"/>
<path d="M642.062 272.625L632.908 302.831L637.094 304.1L646.248 273.894L642.062 272.625Z" fill="#FFBA08"/>
</svg>
