<svg width="26" height="27" viewBox="0 0 26 27" fill="none" xmlns="http://www.w3.org/2000/svg">
<path d="M22.778 4.32581H3.22241C1.89407 4.32581 1.00018 5.49142 1.00018 6.69081V23.0708C1.00018 24.2702 1.89407 25.4358 3.22241 25.4358H22.778C24.1063 25.4358 25.0002 24.2702 25.0002 23.0708V6.69081C25.0002 5.49142 24.1063 4.32581 22.778 4.32581Z" stroke="#545454" stroke-width="2" stroke-linecap="round"/>
<mask id="path-2-outside-1" maskUnits="userSpaceOnUse" x="-0.999817" y="2.3735" width="28" height="13" fill="black">
<rect fill="white" x="-0.999817" y="2.3735" width="28" height="13"/>
<path d="M2.00018 5.3735L13.0002 12.881L24.0002 5.3735"/>
</mask>
<path d="M3.12763 3.72157C2.21529 3.09891 0.970922 3.33373 0.348253 4.24606C-0.274416 5.1584 -0.0395951 6.40277 0.872741 7.02544L3.12763 3.72157ZM13.0002 12.881L11.8727 14.5329L13.0002 15.3024L14.1276 14.5329L13.0002 12.881ZM25.1276 7.02544C26.04 6.40277 26.2748 5.1584 25.6521 4.24606C25.0294 3.33373 23.7851 3.09891 22.8727 3.72157L25.1276 7.02544ZM0.872741 7.02544L11.8727 14.5329L14.1276 11.2291L3.12763 3.72157L0.872741 7.02544ZM14.1276 14.5329L25.1276 7.02544L22.8727 3.72157L11.8727 11.2291L14.1276 14.5329Z" fill="#545454" mask="url(#path-2-outside-1)"/>
</svg>
