<svg width="20" height="14" viewBox="0 0 20 14" fill="none" xmlns="http://www.w3.org/2000/svg">
<path d="M9.99998 2.99995C9.63197 3.0057 9.26668 3.06416 8.91526 3.17356C9.07781 3.45943 9.16436 3.78221 9.16664 4.11106C9.16664 4.36641 9.11635 4.61925 9.01863 4.85516C8.92091 5.09107 8.77769 5.30543 8.59713 5.48599C8.41657 5.66655 8.20222 5.80977 7.96631 5.90749C7.7304 6.00521 7.47755 6.0555 7.2222 6.0555C6.89335 6.05322 6.57057 5.96667 6.2847 5.80411C6.05916 6.58633 6.08544 7.41969 6.35984 8.18614C6.63423 8.95259 7.14283 9.61328 7.81358 10.0746C8.48433 10.536 9.28323 10.7746 10.0971 10.7566C10.911 10.7387 11.6986 10.4651 12.3484 9.97471C12.9982 9.48427 13.4772 8.80183 13.7176 8.02404C13.9579 7.24625 13.9475 6.41254 13.6877 5.64101C13.4279 4.86948 12.932 4.19925 12.2701 3.72524C11.6083 3.25124 10.8141 2.99749 9.99998 2.99995ZM19.8791 6.38189C17.9962 2.70793 14.2684 0.222168 9.99998 0.222168C5.73158 0.222168 2.00276 2.70967 0.120814 6.38224C0.0413844 6.53936 0 6.71295 0 6.88901C0 7.06507 0.0413844 7.23866 0.120814 7.39578C2.0038 11.0697 5.73158 13.5555 9.99998 13.5555C14.2684 13.5555 17.9972 11.068 19.8791 7.39543C19.9586 7.23831 20 7.06472 20 6.88866C20 6.7126 19.9586 6.53901 19.8791 6.38189ZM9.99998 11.8888C6.57463 11.8888 3.43435 9.97911 1.73852 6.88883C3.43435 3.79856 6.57428 1.88883 9.99998 1.88883C13.4257 1.88883 16.5656 3.79856 18.2614 6.88883C16.5659 9.97911 13.4257 11.8888 9.99998 11.8888Z" fill="black" fill-opacity="0.7"/>
</svg>
