<svg width="359" height="371" viewBox="0 0 359 371" fill="none" xmlns="http://www.w3.org/2000/svg">
<g clip-path="url(#clip0)">
<path d="M107.598 370.333C147.309 370.333 179.5 366.452 179.5 361.664C179.5 356.877 147.309 352.995 107.598 352.995C67.8879 352.995 35.6963 356.877 35.6963 361.664C35.6963 366.452 67.8879 370.333 107.598 370.333Z" fill="#F2F2F2"/>
<path d="M259.051 370.333C298.761 370.333 330.953 366.452 330.953 361.664C330.953 356.877 298.761 352.995 259.051 352.995C219.341 352.995 187.149 356.877 187.149 361.664C187.149 366.452 219.341 370.333 259.051 370.333Z" fill="#F2F2F2"/>
<path d="M352.712 208.052L359 170.151L280.495 153.519L283.718 56.839H245.299L242.345 145.436L136.666 123.047L138.873 56.839H100.453L98.5159 114.964L21.3022 98.6058L15.0144 136.507L97.2173 153.923L94.7126 229.065L6.28773 210.331L0 248.232L93.4139 268.023L90.2965 361.544H128.716L131.564 276.105L237.243 298.495L235.142 361.544H273.561L275.393 306.577L337.698 319.777L343.986 281.876L276.692 267.619L279.197 192.477L352.712 208.052ZM238.542 259.536L132.862 237.147L135.367 162.005L241.047 184.394L238.542 259.536Z" fill="#3F3D56"/>
<path opacity="0.2" d="M249.14 259.537L251.645 184.394L145.966 162.005L145.891 164.235L241.046 184.394L238.616 257.307L249.14 259.537Z" fill="black"/>
<path opacity="0.2" d="M252.944 145.436L255.897 56.8387H245.299L242.42 143.206L252.944 145.436Z" fill="black"/>
<path opacity="0.2" d="M289.795 192.477L289.721 194.707L352.712 208.052L353.072 205.883L289.795 192.477Z" fill="black"/>
<path opacity="0.2" d="M109.115 114.964L111.052 56.8387H100.453L98.5903 112.735L109.115 114.964Z" fill="black"/>
<path opacity="0.2" d="M285.992 306.577L285.917 308.807L337.698 319.777L338.058 317.608L285.992 306.577Z" fill="black"/>
<path opacity="0.2" d="M142.162 276.105L142.088 278.335L237.243 298.495L235.142 361.544H245.74L247.842 298.495L142.162 276.105Z" fill="black"/>
<path opacity="0.2" d="M94.7866 226.835L105.311 229.064L107.816 153.923L25.6128 136.507L31.5404 100.775L21.3023 98.6057L15.0142 136.507L97.217 153.923L94.7866 226.835Z" fill="black"/>
<path opacity="0.2" d="M10.5987 248.232L16.5262 212.5L6.2876 210.331L0 248.232L93.4139 268.023L90.2967 361.544H100.895L104.013 268.023L10.5987 248.232Z" fill="black"/>
<path d="M197.057 20.6899L187.328 16.8511L177.599 13.0122L185.788 6.50636L193.977 0L195.517 10.3452L197.057 20.6899Z" fill="#F2F2F2"/>
<path d="M189.315 93.8107L179.587 89.9718L169.857 86.1324L177.583 80.802L185.308 75.4716L187.312 84.6409L189.315 93.8107Z" fill="#F2F2F2"/>
<path d="M172.579 192.031L162.85 188.192L153.121 184.353L161.31 177.847L169.499 171.341L171.039 181.686L172.579 192.031Z" fill="#F2F2F2"/>
<path d="M70.5629 303.075L61.3742 308.07L52.1855 313.067L52.4528 302.611L52.7205 292.156L61.6414 297.615L70.5629 303.075Z" fill="#F2F2F2"/>
<path d="M61.3837 68.5007L52.195 73.4966L43.0063 78.493L43.2736 68.0372L43.5413 57.5818L52.4622 63.0412L61.3837 68.5007Z" fill="#F2F2F2"/>
<path d="M108.03 345.644C114.308 356.349 126.968 360.587 126.968 360.587C126.968 360.587 129.45 347.469 123.173 336.764C116.896 326.06 104.236 321.821 104.236 321.821C104.236 321.821 101.753 334.939 108.03 345.644Z" fill="#F2F2F2"/>
<path d="M111.947 341.908C122.803 347.92 127.351 360.473 127.351 360.473C127.351 360.473 114.298 363.277 103.442 357.264C92.5859 351.252 88.0381 338.699 88.0381 338.699C88.0381 338.699 101.091 335.895 111.947 341.908Z" fill="#6C63FF"/>
<path d="M308.016 336.777C300.725 346.819 301.917 360.117 301.917 360.117C301.917 360.117 314.93 357.133 322.221 347.091C329.512 337.049 328.32 323.752 328.32 323.752C328.32 323.752 315.307 326.735 308.016 336.777Z" fill="#6C63FF"/>
<path d="M313.009 338.868C311.852 351.224 302.176 360.422 302.176 360.422C302.176 360.422 294.374 349.587 295.531 337.232C296.688 324.876 306.364 315.678 306.364 315.678C306.364 315.678 314.166 326.512 313.009 338.868Z" fill="#6C63FF"/>
</g>
<defs>
<clipPath id="clip0">
<rect width="359" height="371" fill="white"/>
</clipPath>
</defs>
</svg>
