<svg width="777" height="394" viewBox="0 0 777 394" fill="none" xmlns="http://www.w3.org/2000/svg">
<path d="M765.439 371.264H11.1394C5.09541 371.264 0.19577 376.164 0.19577 382.208C0.19577 388.253 5.09541 393.153 11.1394 393.153H765.439C771.483 393.153 776.382 388.253 776.382 382.208C776.382 376.164 771.483 371.264 765.439 371.264Z" fill="#C9C9C9"/>
<path d="M153.079 280.043C147.514 280.001 142.191 277.76 138.271 273.81C134.35 269.859 132.15 264.519 132.15 258.954C132.15 253.388 134.35 248.048 138.271 244.097C142.191 240.147 147.514 237.907 153.079 237.864H272.284V280.043H153.079Z" fill="#CECECE"/>
<path d="M153.079 230.563H279.185V287.334H153.079C145.551 287.334 138.332 284.344 133.009 279.021C127.686 273.697 124.696 266.477 124.696 258.949V258.949C124.696 255.222 125.43 251.53 126.856 248.086C128.282 244.642 130.373 241.513 133.008 238.877C135.644 236.241 138.773 234.15 142.217 232.724C145.66 231.297 149.351 230.563 153.079 230.563V230.563Z" fill="white"/>
<path d="M272.284 254.844H145.367C144.722 254.844 144.104 254.588 143.647 254.132C143.191 253.675 142.935 253.057 142.935 252.412C142.935 251.767 143.191 251.148 143.647 250.692C144.104 250.236 144.722 249.98 145.367 249.98H272.284C272.929 249.98 273.548 250.236 274.004 250.692C274.46 251.148 274.716 251.767 274.716 252.412C274.716 253.057 274.46 253.675 274.004 254.132C273.548 254.588 272.929 254.844 272.284 254.844Z" fill="#1F3969"/>
<path d="M272.284 267.723H145.367C144.722 267.723 144.104 267.467 143.647 267.011C143.191 266.555 142.935 265.936 142.935 265.291C142.935 264.646 143.191 264.027 143.647 263.571C144.104 263.115 144.722 262.859 145.367 262.859H272.284C272.929 262.859 273.548 263.115 274.004 263.571C274.46 264.027 274.716 264.646 274.716 265.291C274.716 265.936 274.46 266.555 274.004 267.011C273.548 267.467 272.929 267.723 272.284 267.723Z" fill="#1F3969"/>
<path d="M272.284 282.475H153.079C146.87 282.43 140.931 279.933 136.557 275.526C132.182 271.12 129.727 265.163 129.727 258.954C129.727 252.744 132.182 246.787 136.557 242.381C140.931 237.975 146.87 235.477 153.079 235.432H272.284C272.929 235.432 273.548 235.688 274.004 236.144C274.46 236.601 274.716 237.219 274.716 237.864V280.043C274.716 280.688 274.46 281.307 274.004 281.763C273.548 282.219 272.929 282.475 272.284 282.475ZM153.079 240.291C148.157 240.331 143.45 242.314 139.984 245.809C136.518 249.304 134.573 254.026 134.573 258.949C134.573 263.871 136.518 268.594 139.984 272.088C143.45 275.583 148.157 277.566 153.079 277.606H269.852V240.291H153.079Z" fill="#1F3969"/>
<path d="M153.079 280.043C147.514 280.001 142.191 277.76 138.271 273.81C134.35 269.859 132.15 264.519 132.15 258.953C132.15 253.388 134.35 248.048 138.271 244.097C142.191 240.147 147.514 237.906 153.079 237.864H274.321L279.185 230.568H153.079C145.551 230.568 138.332 233.558 133.009 238.882C127.686 244.205 124.696 251.425 124.696 258.953C124.696 262.681 125.43 266.372 126.856 269.816C128.282 273.26 130.373 276.389 133.008 279.025C135.644 281.661 138.773 283.752 142.217 285.178C145.66 286.605 149.351 287.339 153.079 287.339H279.185L274.321 280.043H153.079Z" fill="#FF3E3E"/>
<path d="M279.185 289.771H153.079C144.939 289.72 137.151 286.451 131.414 280.677C125.676 274.903 122.456 267.093 122.456 258.953C122.456 250.813 125.676 243.004 131.414 237.23C137.151 231.456 144.939 228.187 153.079 228.136H279.185C279.625 228.136 280.057 228.255 280.434 228.482C280.812 228.708 281.121 229.032 281.329 229.42C281.536 229.808 281.635 230.245 281.614 230.685C281.592 231.125 281.452 231.55 281.208 231.916L276.344 239.213C276.122 239.546 275.822 239.819 275.469 240.008C275.116 240.197 274.722 240.296 274.321 240.296H153.079C148.157 240.336 143.45 242.319 139.984 245.814C136.518 249.308 134.573 254.031 134.573 258.953C134.573 263.876 136.518 268.599 139.984 272.093C143.45 275.588 148.157 277.571 153.079 277.611H274.321C274.722 277.611 275.116 277.71 275.469 277.899C275.822 278.088 276.122 278.361 276.344 278.694L281.208 285.991C281.452 286.357 281.592 286.782 281.614 287.222C281.635 287.662 281.536 288.099 281.329 288.487C281.121 288.875 280.812 289.199 280.434 289.425C280.057 289.652 279.625 289.771 279.185 289.771ZM153.079 232.995C146.227 233.042 139.671 235.797 134.843 240.659C130.014 245.521 127.304 252.096 127.304 258.949C127.304 265.801 130.014 272.376 134.843 277.238C139.671 282.1 146.227 284.855 153.079 284.902H274.646L273.024 282.47H153.079C146.87 282.425 140.931 279.928 136.557 275.521C132.182 271.115 129.727 265.158 129.727 258.949C129.727 252.739 132.182 246.782 136.557 242.376C140.931 237.97 146.87 235.472 153.079 235.427H273.024L274.646 232.995H153.079Z" fill="#1F3969"/>
<g opacity="0.28">
<path opacity="0.28" d="M252.075 230.568H229.712V287.339H252.075V230.568Z" fill="#1F3969"/>
<path opacity="0.28" d="M252.075 289.771H229.712C229.067 289.771 228.449 289.515 227.993 289.059C227.537 288.603 227.28 287.984 227.28 287.339V230.563C227.28 229.918 227.537 229.299 227.993 228.843C228.449 228.387 229.067 228.131 229.712 228.131H252.075C252.72 228.131 253.339 228.387 253.795 228.843C254.251 229.299 254.507 229.918 254.507 230.563V287.334C254.508 287.654 254.445 287.971 254.323 288.266C254.201 288.562 254.022 288.831 253.796 289.057C253.571 289.284 253.302 289.463 253.007 289.586C252.712 289.708 252.395 289.771 252.075 289.771ZM232.144 284.907H249.643V232.995H232.144V284.907Z" fill="#1F3969"/>
</g>
<path d="M266.217 287.339H35.3006C30.7602 287.339 27.0795 291.02 27.0795 295.561V326.005C27.0795 330.546 30.7602 334.227 35.3006 334.227H266.217C270.757 334.227 274.438 330.546 274.438 326.005V295.561C274.438 291.02 270.757 287.339 266.217 287.339Z" fill="#50B56F"/>
<path d="M266.217 336.659H35.3055C32.481 336.655 29.7731 335.532 27.7758 333.535C25.7784 331.537 24.6548 328.83 24.6512 326.005V295.561C24.6548 292.736 25.7784 290.028 27.7758 288.031C29.7731 286.034 32.481 284.91 35.3055 284.907H266.217C269.041 284.91 271.749 286.034 273.746 288.031C275.743 290.028 276.867 292.736 276.87 295.561V326.005C276.867 328.829 275.743 331.537 273.746 333.535C271.749 335.532 269.041 336.655 266.217 336.659V336.659ZM35.3055 289.771C33.7705 289.773 32.2988 290.383 31.2132 291.469C30.1277 292.554 29.517 294.026 29.5151 295.561V326.005C29.517 327.54 30.1277 329.012 31.2132 330.097C32.2988 331.182 33.7705 331.793 35.3055 331.794H266.217C267.752 331.793 269.223 331.182 270.308 330.097C271.393 329.011 272.004 327.54 272.006 326.005V295.561C272.004 294.026 271.393 292.555 270.308 291.469C269.223 290.384 267.752 289.773 266.217 289.771H35.3055Z" fill="#1F3969"/>
<g opacity="0.28">
<path opacity="0.28" d="M266.217 287.339H229.712V305.58C229.712 308.305 230.249 311.003 231.291 313.52C232.334 316.037 233.862 318.324 235.788 320.251C237.715 322.177 240.002 323.706 242.519 324.748C245.036 325.791 247.733 326.327 250.458 326.327H274.422C274.422 326.221 274.438 326.117 274.438 326.01V295.561C274.438 293.381 273.572 291.289 272.03 289.747C270.488 288.206 268.397 287.339 266.217 287.339Z" fill="#1F3969"/>
<path opacity="0.28" d="M274.422 328.756H250.458C244.313 328.748 238.421 326.304 234.076 321.958C229.731 317.613 227.287 311.721 227.28 305.575V287.334C227.28 286.689 227.537 286.071 227.993 285.615C228.449 285.159 229.067 284.902 229.712 284.902H266.217C269.041 284.906 271.749 286.029 273.746 288.026C275.743 290.024 276.867 292.732 276.87 295.556V326C276.87 326.122 276.864 326.243 276.855 326.357C276.817 326.987 276.548 327.581 276.099 328.023C275.649 328.466 275.052 328.727 274.422 328.756ZM232.144 289.771V305.58C232.149 310.436 234.081 315.092 237.514 318.525C240.947 321.959 245.602 323.891 250.458 323.896H272.002V295.562C272 294.027 271.39 292.556 270.305 291.471C269.219 290.385 267.748 289.775 266.213 289.773L232.144 289.771Z" fill="#1F3969"/>
</g>
<path d="M331.216 343.64H63.7675C67.0604 352.553 67.0604 362.35 63.7675 371.264H331.216C327.925 362.35 327.925 352.554 331.216 343.64V343.64Z" fill="#CECECE"/>
<path d="M338.469 336.29H56.524V343.64H338.469V336.29Z" fill="#5F5AFF"/>
<path d="M338.469 346.072H56.524C55.879 346.072 55.2605 345.816 54.8044 345.36C54.3483 344.903 54.0921 344.285 54.0921 343.64V336.29C54.0921 335.645 54.3483 335.026 54.8044 334.57C55.2605 334.114 55.879 333.858 56.524 333.858H338.469C339.114 333.858 339.733 334.114 340.189 334.57C340.645 335.026 340.901 335.645 340.901 336.29V343.64C340.901 344.285 340.645 344.903 340.189 345.36C339.733 345.816 339.114 346.072 338.469 346.072ZM58.9559 341.208H336.037V338.722H58.9559V341.208Z" fill="#1F3969"/>
<path d="M338.469 371.264H56.524V378.613H338.469V371.264Z" fill="#F6F9FD"/>
<path d="M338.469 371.264H56.524V378.613H338.469V371.264Z" fill="#5F5AFF"/>
<path d="M338.469 381.046H56.524C55.879 381.046 55.2605 380.789 54.8044 380.333C54.3483 379.877 54.0921 379.258 54.0921 378.613V371.26C54.0921 370.615 54.3483 369.996 54.8044 369.54C55.2605 369.084 55.879 368.828 56.524 368.828H338.469C339.114 368.828 339.733 369.084 340.189 369.54C340.645 369.996 340.901 370.615 340.901 371.26V378.61C340.902 378.929 340.839 379.246 340.717 379.542C340.595 379.837 340.416 380.106 340.19 380.332C339.964 380.558 339.696 380.738 339.401 380.86C339.105 380.983 338.789 381.046 338.469 381.046ZM58.9559 376.181H336.037V373.692H58.9559V376.181Z" fill="#1F3969"/>
<path d="M478.64 352.654L474.977 311.732H414.899L411.239 352.654C410.387 362.159 404.672 371.26 395.702 378.527L395.691 378.615H494.193L494.182 378.527C485.212 371.26 479.492 362.157 478.64 352.654Z" fill="#BFCFE2"/>
<g opacity="0.28">
<path opacity="0.28" d="M414.899 311.729L412.699 336.29H477.175L474.977 311.729H414.899Z" fill="#1F3969"/>
<path opacity="0.28" d="M477.176 338.722H412.698C412.36 338.722 412.026 338.652 411.717 338.516C411.408 338.379 411.131 338.18 410.903 337.931C410.675 337.682 410.501 337.388 410.393 337.068C410.285 336.748 410.245 336.409 410.275 336.072L412.475 311.508C412.53 310.903 412.808 310.34 413.256 309.931C413.705 309.521 414.29 309.294 414.897 309.294H474.976C475.583 309.294 476.168 309.521 476.616 309.931C477.065 310.34 477.343 310.903 477.398 311.508L479.597 336.072C479.628 336.409 479.588 336.748 479.48 337.068C479.372 337.388 479.198 337.682 478.97 337.931C478.742 338.18 478.465 338.379 478.156 338.516C477.847 338.652 477.513 338.722 477.175 338.722H477.176ZM415.358 333.858H474.516L472.753 314.158H417.123L415.358 333.858Z" fill="#1F3969"/>
</g>
<path d="M494.188 381.045H395.686C395.342 381.045 395.002 380.972 394.688 380.831C394.374 380.69 394.094 380.483 393.866 380.226C393.638 379.968 393.467 379.665 393.365 379.336C393.262 379.007 393.231 378.661 393.273 378.319C393.351 377.666 393.67 377.066 394.166 376.635C402.842 369.609 408.043 361.014 408.811 352.436L412.476 311.514C412.531 310.909 412.809 310.347 413.258 309.937C413.706 309.527 414.291 309.3 414.899 309.3H474.976C475.583 309.3 476.168 309.527 476.617 309.937C477.065 310.347 477.344 310.909 477.398 311.514L481.064 352.436C481.831 361.014 487.032 369.607 495.708 376.635C496.198 377.032 496.515 377.604 496.592 378.23C496.633 378.578 496.603 378.93 496.501 379.265C496.4 379.6 496.23 379.91 496.003 380.176C495.779 380.44 495.501 380.654 495.188 380.804C494.875 380.954 494.535 381.036 494.188 381.045ZM401.904 376.181H487.966C481.066 369.171 476.946 361.06 476.214 352.868L472.746 314.163H417.123L413.656 352.87C412.923 361.061 408.807 369.172 401.904 376.181Z" fill="#1F3969"/>
<path d="M637.06 38.1184H252.816C244.757 38.1184 238.224 44.6517 238.224 52.711V303.217C238.224 311.276 244.757 317.81 252.816 317.81H637.06C645.118 317.81 651.651 311.276 651.651 303.217V52.711C651.651 44.6517 645.118 38.1184 637.06 38.1184Z" fill="white"/>
<path d="M637.06 38.1184H252.816C244.757 38.1184 238.224 44.6517 238.224 52.711V303.217C238.224 311.276 244.757 317.81 252.816 317.81H637.06C645.118 317.81 651.651 311.276 651.651 303.217V52.711C651.651 44.6517 645.118 38.1184 637.06 38.1184Z" fill="#BFCFE2"/>
<path d="M630.98 271.103V58.7913L258.895 58.7913V271.103H630.98Z" fill="#F6F9FD"/>
<g opacity="0.28">
<path opacity="0.28" d="M272.288 38.1184V206.654C272.288 209.234 273.313 211.709 275.137 213.533C276.962 215.358 279.436 216.383 282.016 216.383H511.92C514.5 216.383 516.974 215.358 518.799 213.533C520.623 211.709 521.648 209.234 521.648 206.654V38.1184H272.288Z" fill="#1F3969"/>
<path opacity="0.28" d="M511.92 218.815H282.016C278.792 218.811 275.701 217.529 273.421 215.249C271.142 212.969 269.86 209.878 269.856 206.654V38.1184C269.856 37.4733 270.112 36.8547 270.568 36.3986C271.025 35.9425 271.643 35.6863 272.288 35.6863H521.648C522.293 35.6863 522.911 35.9425 523.367 36.3986C523.824 36.8547 524.08 37.4733 524.08 38.1184V206.654C524.076 209.878 522.794 212.969 520.514 215.249C518.235 217.529 515.144 218.811 511.92 218.815ZM274.72 40.5505V206.654C274.722 208.589 275.492 210.443 276.859 211.811C278.227 213.179 280.081 213.948 282.016 213.951H511.92C513.855 213.949 515.709 213.179 517.077 211.811C518.445 210.443 519.214 208.589 519.216 206.654V40.5505H274.72Z" fill="#1F3969"/>
</g>
<path d="M630.98 273.536H258.895C258.25 273.536 257.632 273.28 257.176 272.823C256.72 272.367 256.464 271.749 256.464 271.104V58.7912C256.464 58.1462 256.72 57.5276 257.176 57.0715C257.632 56.6154 258.25 56.3591 258.895 56.3591H630.98C631.625 56.3591 632.243 56.6154 632.7 57.0715C633.156 57.5276 633.412 58.1462 633.412 58.7912V271.104C633.412 271.749 633.156 272.367 632.7 272.823C632.243 273.28 631.625 273.536 630.98 273.536ZM261.327 268.672H628.548V61.2233H261.327V268.672Z" fill="#1F3969"/>
<path d="M461.286 296.775H428.588C427.943 296.775 427.324 296.518 426.868 296.062C426.412 295.606 426.156 294.988 426.156 294.342C426.156 293.697 426.412 293.079 426.868 292.623C427.324 292.167 427.943 291.91 428.588 291.91H461.286C461.931 291.91 462.55 292.167 463.006 292.623C463.462 293.079 463.718 293.697 463.718 294.342C463.718 294.988 463.462 295.606 463.006 296.062C462.55 296.518 461.931 296.775 461.286 296.775V296.775Z" fill="#1F3969"/>
<path d="M522.865 3.22754H292.959C287.587 3.22754 283.232 7.58309 283.232 12.9559V193.279C283.232 198.652 287.587 203.007 292.959 203.007H522.865C528.238 203.007 532.593 198.652 532.593 193.279V12.9559C532.593 7.58309 528.238 3.22754 522.865 3.22754Z" fill="#2D425E"/>
<path d="M532.592 29.3166H283.232C282.587 29.3166 281.968 29.0604 281.512 28.6043C281.056 28.1482 280.8 27.5296 280.8 26.8845V12.9559C280.803 9.73183 282.086 6.64083 284.365 4.36106C286.645 2.08129 289.736 0.798951 292.959 0.79541H522.864C526.088 0.798951 529.179 2.08129 531.458 4.36106C533.738 6.64083 535.02 9.73183 535.024 12.9559V26.8845C535.024 27.5296 534.767 28.1482 534.311 28.6043C533.855 29.0604 533.237 29.3166 532.592 29.3166ZM285.662 24.4524H530.16V12.9559C530.158 11.0214 529.388 9.16669 528.021 7.79879C526.653 6.43089 524.798 5.66154 522.864 5.65961H292.959C291.025 5.66186 289.171 6.43129 287.803 7.79912C286.435 9.16696 285.666 11.0215 285.664 12.9559L285.662 24.4524Z" fill="#1F3969"/>
<path d="M292.959 3.22754H522.864C525.444 3.22754 527.918 4.25248 529.742 6.07691C531.567 7.90134 532.592 10.3758 532.592 12.9559V31.5177H283.232V12.9559C283.232 10.3758 284.257 7.90134 286.081 6.07691C287.905 4.25248 290.379 3.22754 292.959 3.22754Z" fill="#D0DDF0"/>
<path d="M532.592 33.9498H283.232C282.587 33.9498 281.968 33.6936 281.512 33.2374C281.056 32.7813 280.8 32.1627 280.8 31.5177V12.9559C280.803 9.73183 282.086 6.64083 284.365 4.36106C286.645 2.08129 289.736 0.798951 292.959 0.79541H522.864C526.088 0.798951 529.179 2.08129 531.458 4.36106C533.738 6.64083 535.02 9.73183 535.024 12.9559V31.5177C535.024 32.1627 534.767 32.7813 534.311 33.2374C533.855 33.6936 533.237 33.9498 532.592 33.9498ZM285.662 29.0856H530.16V12.9559C530.158 11.0214 529.388 9.16669 528.021 7.79879C526.653 6.43089 524.798 5.66154 522.864 5.65961H292.959C291.025 5.66186 289.171 6.43129 287.803 7.79912C286.435 9.16696 285.666 11.0215 285.664 12.9559L285.662 29.0856Z" fill="#1F3969"/>
<path d="M532.592 33.9498H283.232C282.587 33.9498 281.968 33.6936 281.512 33.2374C281.056 32.7813 280.8 32.1627 280.8 31.5177V12.9559C280.803 9.73183 282.086 6.64083 284.365 4.36106C286.645 2.08129 289.736 0.798951 292.959 0.79541H522.864C526.088 0.798951 529.179 2.08129 531.458 4.36106C533.738 6.64083 535.02 9.73183 535.024 12.9559V31.5177C535.024 32.1627 534.767 32.7813 534.311 33.2374C533.855 33.6936 533.237 33.9498 532.592 33.9498ZM285.662 29.0856H530.16V12.9559C530.158 11.0214 529.388 9.16669 528.021 7.79879C526.653 6.43089 524.798 5.66154 522.864 5.65961H292.959C291.025 5.66186 289.171 6.43129 287.803 7.79912C286.435 9.16696 285.666 11.0215 285.664 12.9559L285.662 29.0856Z" fill="#1F3969"/>
<path d="M522.864 205.438H292.959C289.736 205.435 286.645 204.152 284.365 201.873C282.086 199.593 280.803 196.502 280.8 193.278V12.9559C280.803 9.73183 282.086 6.64083 284.365 4.36106C286.645 2.08129 289.736 0.798951 292.959 0.79541H522.864C526.088 0.798951 529.179 2.08129 531.458 4.36106C533.738 6.64083 535.02 9.73183 535.024 12.9559V193.278C535.02 196.502 533.738 199.593 531.458 201.873C529.179 204.152 526.088 205.435 522.864 205.438ZM292.959 5.65961C291.025 5.66186 289.171 6.43129 287.803 7.79912C286.435 9.16696 285.666 11.0215 285.664 12.9559V193.278C285.666 195.212 286.435 197.067 287.803 198.435C289.171 199.802 291.025 200.572 292.959 200.574H522.864C524.798 200.572 526.653 199.803 528.021 198.435C529.388 197.067 530.158 195.212 530.16 193.278V12.9559C530.158 11.0214 529.388 9.16669 528.021 7.79879C526.653 6.43089 524.798 5.66154 522.864 5.65961H292.959Z" fill="#1F3969"/>
<g opacity="0.28">
<path opacity="0.28" d="M642.866 77.0977H501.795C496.422 77.0977 492.067 81.4532 492.067 86.8261V236.333C492.067 241.706 496.422 246.062 501.795 246.062H642.866C648.238 246.062 652.594 241.706 652.594 236.333V86.8261C652.594 81.4532 648.238 77.0977 642.866 77.0977Z" fill="#1F3969"/>
<path opacity="0.28" d="M642.866 248.495H501.795C498.571 248.491 495.481 247.209 493.201 244.929C490.921 242.649 489.639 239.558 489.635 236.334V86.826C489.639 83.6019 490.921 80.5109 493.201 78.2312C495.48 75.9514 498.571 74.6691 501.795 74.6655H642.866C646.09 74.6691 649.181 75.9514 651.46 78.2312C653.74 80.5109 655.022 83.6019 655.026 86.826V236.334C655.022 239.558 653.739 242.649 651.46 244.929C649.18 247.209 646.09 248.491 642.866 248.495V248.495ZM501.795 79.5297C499.86 79.5317 498.006 80.301 496.638 81.6689C495.27 83.0368 494.501 84.8915 494.499 86.826V236.334C494.501 238.269 495.271 240.123 496.638 241.491C498.006 242.859 499.861 243.629 501.795 243.631H642.866C644.8 243.629 646.655 242.859 648.022 241.491C649.39 240.123 650.16 238.269 650.162 236.334V86.826C650.16 84.8915 649.391 83.0368 648.023 81.6689C646.655 80.301 644.8 79.5317 642.866 79.5297H501.795Z" fill="#1F3969"/>
</g>
<path d="M652.594 68.5852H511.522C506.15 68.5852 501.795 72.9408 501.795 78.3136V227.821C501.795 233.194 506.15 237.549 511.522 237.549H652.594C657.966 237.549 662.321 233.194 662.321 227.821V78.3136C662.321 72.9408 657.966 68.5852 652.594 68.5852Z" fill="#2AA1FF"/>
<path d="M652.594 239.983H511.523C508.299 239.979 505.208 238.696 502.929 236.417C500.649 234.137 499.367 231.046 499.363 227.822V78.3138C499.366 75.0897 500.649 71.9987 502.928 69.719C505.208 67.4392 508.299 66.1569 511.523 66.1533H652.594C655.818 66.1569 658.908 67.4392 661.188 69.719C663.467 71.9987 664.75 75.0897 664.753 78.3138V227.822C664.749 231.046 663.467 234.137 661.187 236.417C658.908 238.696 655.817 239.979 652.594 239.983ZM511.523 71.0175C509.588 71.0194 507.734 71.7888 506.366 73.1567C504.998 74.5246 504.229 76.3793 504.227 78.3138V227.822C504.229 229.757 504.998 231.611 506.366 232.979C507.734 234.347 509.588 235.116 511.523 235.119H652.594C654.528 235.116 656.382 234.347 657.75 232.979C659.118 231.611 659.887 229.757 659.889 227.822V78.3138C659.888 76.3793 659.118 74.5246 657.75 73.1567C656.383 71.7888 654.528 71.0194 652.594 71.0175H511.523Z" fill="#1F3969"/>
<g style="mix-blend-mode:screen" opacity="0.34">
<path d="M631.603 92.832H532.418C528.948 92.832 526.135 95.6452 526.135 99.1154V108.601C526.135 112.071 528.948 114.884 532.418 114.884H631.603C635.072 114.884 637.885 112.071 637.885 108.601V99.1154C637.885 95.6452 635.072 92.832 631.603 92.832Z" stroke="white" stroke-width="2" stroke-linecap="round" stroke-linejoin="round"/>
</g>
<g style="mix-blend-mode:screen" opacity="0.34">
<g style="mix-blend-mode:screen" opacity="0.34">
<path d="M588.015 128.471H532.515C529.045 128.471 526.232 131.284 526.232 134.754V144.239C526.232 147.71 529.045 150.523 532.515 150.523H588.015C591.485 150.523 594.298 147.71 594.298 144.239V134.754C594.298 131.284 591.485 128.471 588.015 128.471Z" stroke="white" stroke-width="2" stroke-linecap="round" stroke-linejoin="round"/>
</g>
<g style="mix-blend-mode:screen" opacity="0.34">
<path d="M631.7 128.471H610.232C606.762 128.471 603.949 131.284 603.949 134.754V144.239C603.949 147.71 606.762 150.523 610.232 150.523H631.7C635.17 150.523 637.983 147.71 637.983 144.239V134.754C637.983 131.284 635.17 128.471 631.7 128.471Z" stroke="white" stroke-width="2" stroke-linecap="round" stroke-linejoin="round"/>
</g>
</g>
<path d="M526.135 187.552H637.885" stroke="white" stroke-width="2" stroke-linecap="round" stroke-linejoin="round"/>
<path d="M526.135 200.674H637.885" stroke="white" stroke-width="2" stroke-linecap="round" stroke-linejoin="round"/>
<path d="M526.135 213.795H594.201" stroke="white" stroke-width="2" stroke-linecap="round" stroke-linejoin="round"/>
<path d="M307.639 22.2369C310.325 22.2369 312.502 20.0592 312.502 17.3727C312.502 14.6863 310.325 12.5085 307.639 12.5085C304.952 12.5085 302.775 14.6863 302.775 17.3727C302.775 20.0592 304.952 22.2369 307.639 22.2369Z" fill="#1F3969"/>
<path d="M324.523 22.2369C327.21 22.2369 329.387 20.0592 329.387 17.3727C329.387 14.6863 327.21 12.5085 324.523 12.5085C321.837 12.5085 319.659 14.6863 319.659 17.3727C319.659 20.0592 321.837 22.2369 324.523 22.2369Z" fill="#1F3969"/>
<path d="M341.408 22.2369C344.094 22.2369 346.272 20.0592 346.272 17.3727C346.272 14.6863 344.094 12.5085 341.408 12.5085C338.722 12.5085 336.544 14.6863 336.544 17.3727C336.544 20.0592 338.722 22.2369 341.408 22.2369Z" fill="#1F3969"/>
<path d="M426.488 53.9673H442.208" stroke="white" stroke-width="4" stroke-linecap="round" stroke-linejoin="round"/>
<path d="M346.272 53.9673H414.823" stroke="#7BFFA0" stroke-width="4" stroke-linecap="round" stroke-linejoin="round"/>
<path d="M312.502 53.9673H336.544" stroke="#9169FF" stroke-width="4" stroke-linecap="round" stroke-linejoin="round"/>
<path d="M343.84 173.82H396.197" stroke="#9169FF" stroke-width="4" stroke-linecap="round" stroke-linejoin="round"/>
<path d="M312.502 173.82H329.386" stroke="#7BFFA0" stroke-width="4" stroke-linecap="round" stroke-linejoin="round"/>
<path d="M414.824 68.949H424.57" stroke="white" stroke-width="4" stroke-linecap="round" stroke-linejoin="round"/>
<path d="M369.992 68.949H403.099" stroke="#9169FF" stroke-width="4" stroke-linecap="round" stroke-linejoin="round"/>
<path d="M324.523 68.949H358.259" stroke="#FFC47D" stroke-width="4" stroke-linecap="round" stroke-linejoin="round"/>
<path d="M376.742 83.9307H405.728" stroke="white" stroke-width="4" stroke-linecap="round" stroke-linejoin="round"/>
<path d="M340.189 83.9307H367.526" stroke="#FF5757" stroke-width="4" stroke-linecap="round" stroke-linejoin="round"/>
<path d="M380.607 98.9124H386.612" stroke="white" stroke-width="4" stroke-linecap="round" stroke-linejoin="round"/>
<path d="M356.507 98.9124H369.992" stroke="#9169FF" stroke-width="4" stroke-linecap="round" stroke-linejoin="round"/>
<path d="M324.523 98.9124H346.272" stroke="#7BFFA0" stroke-width="4" stroke-linecap="round" stroke-linejoin="round"/>
<path d="M371.219 113.894H410.001" stroke="#FFC47D" stroke-width="4" stroke-linecap="round" stroke-linejoin="round"/>
<path d="M324.523 113.894H359.333" stroke="#FF5757" stroke-width="4" stroke-linecap="round" stroke-linejoin="round"/>
<path d="M416.08 128.876H437.169" stroke="#9169FF" stroke-width="4" stroke-linecap="round" stroke-linejoin="round"/>
<path d="M371.219 128.876H404.961" stroke="#FF5757" stroke-width="4" stroke-linecap="round" stroke-linejoin="round"/>
<path d="M340.189 128.876H359.333" stroke="#7BFFA0" stroke-width="4" stroke-linecap="round" stroke-linejoin="round"/>
<path d="M386.546 143.858H404.96" stroke="white" stroke-width="4" stroke-linecap="round" stroke-linejoin="round"/>
<path d="M340.189 143.858H373.924" stroke="#9169FF" stroke-width="4" stroke-linecap="round" stroke-linejoin="round"/>
<path d="M434.348 158.839H455.374" stroke="white" stroke-width="4" stroke-linecap="round" stroke-linejoin="round"/>
<path d="M369.992 158.839H422.97" stroke="#FFC47D" stroke-width="4" stroke-linecap="round" stroke-linejoin="round"/>
<path d="M324.523 158.839H358.259" stroke="white" stroke-width="4" stroke-linecap="round" stroke-linejoin="round"/>
<path d="M328.746 354.505H66.7563C66.1114 354.505 65.4928 354.249 65.0367 353.793C64.5806 353.337 64.3244 352.718 64.3244 352.073C64.3244 351.428 64.5806 350.81 65.0367 350.353C65.4928 349.897 66.1114 349.641 66.7563 349.641H328.746C329.391 349.641 330.01 349.897 330.466 350.353C330.922 350.81 331.178 351.428 331.178 352.073C331.178 352.718 330.922 353.337 330.466 353.793C330.01 354.249 329.391 354.505 328.746 354.505Z" fill="#1F3969"/>
<path d="M328.746 364.254H66.7563C66.1114 364.254 65.4928 363.998 65.0367 363.542C64.5806 363.086 64.3244 362.467 64.3244 361.822C64.3244 361.177 64.5806 360.559 65.0367 360.103C65.4928 359.646 66.1114 359.39 66.7563 359.39H328.746C329.391 359.39 330.01 359.646 330.466 360.103C330.922 360.559 331.178 361.177 331.178 361.822C331.178 362.467 330.922 363.086 330.466 363.542C330.01 363.998 329.391 364.254 328.746 364.254Z" fill="#1F3969"/>
<path d="M331.216 373.692H63.7675C63.371 373.692 62.9804 373.595 62.6299 373.41C62.2794 373.224 61.9796 372.956 61.7566 372.628C61.5336 372.3 61.3942 371.922 61.3505 371.528C61.3068 371.134 61.3601 370.735 61.5058 370.366C64.5716 362.027 64.5716 352.868 61.5058 344.529C61.3603 344.16 61.3072 343.761 61.351 343.367C61.3949 342.973 61.5343 342.596 61.7573 342.268C61.9803 341.94 62.28 341.672 62.6304 341.487C62.9807 341.301 63.3711 341.204 63.7675 341.204H331.216C331.612 341.204 332.003 341.301 332.353 341.487C332.703 341.672 333.003 341.94 333.226 342.268C333.448 342.595 333.588 342.973 333.632 343.366C333.676 343.76 333.623 344.159 333.478 344.528C330.412 352.868 330.412 362.027 333.478 370.367C333.623 370.736 333.676 371.135 333.633 371.529C333.589 371.923 333.449 372.3 333.226 372.628C333.003 372.956 332.704 373.224 332.353 373.41C332.003 373.595 331.612 373.692 331.216 373.692ZM67.1479 368.828H327.837C325.807 361.377 325.807 353.519 327.837 346.068H67.1479C69.1761 353.519 69.1761 361.377 67.1479 368.828V368.828Z" fill="#1F3969"/>
<path d="M691.039 244.571L679.187 245.962L689.486 333.705L701.338 332.314L691.039 244.571Z" fill="#FFA364"/>
<path d="M691.039 244.571L679.186 245.962L680.234 254.887L692.086 253.496L691.039 244.571Z" fill="#2AA1FF"/>
<path d="M680.234 257.316C679.638 257.316 679.063 257.097 678.618 256.701C678.172 256.305 677.888 255.759 677.819 255.167L676.771 246.242C676.733 245.924 676.759 245.603 676.846 245.296C676.933 244.988 677.079 244.701 677.277 244.45C677.475 244.2 677.721 243.99 677.999 243.835C678.278 243.679 678.585 243.579 678.902 243.542L690.754 242.151C691.071 242.114 691.393 242.139 691.7 242.226C692.008 242.313 692.295 242.46 692.545 242.658C692.796 242.856 693.005 243.101 693.161 243.38C693.317 243.659 693.416 243.965 693.454 244.283L694.501 253.208C694.576 253.849 694.393 254.493 693.993 254.999C693.594 255.505 693.009 255.832 692.369 255.907L680.517 257.299C680.423 257.31 680.328 257.316 680.234 257.316V257.316ZM681.885 248.09L682.365 252.185L689.386 251.36L688.907 247.266L681.885 248.09Z" fill="#1F3969"/>
<path d="M689.485 336.138C688.889 336.138 688.314 335.919 687.869 335.523C687.424 335.127 687.139 334.581 687.07 333.989L676.771 246.247C676.733 245.929 676.759 245.608 676.846 245.301C676.933 244.993 677.079 244.706 677.277 244.455C677.475 244.205 677.721 243.995 677.999 243.839C678.278 243.684 678.585 243.584 678.902 243.547L690.754 242.156C691.071 242.118 691.393 242.144 691.7 242.231C692.008 242.318 692.295 242.465 692.545 242.663C692.796 242.86 693.005 243.106 693.161 243.385C693.317 243.664 693.416 243.97 693.454 244.288L703.753 332.03C703.79 332.348 703.765 332.669 703.678 332.976C703.591 333.284 703.444 333.571 703.246 333.822C703.048 334.072 702.803 334.282 702.524 334.438C702.245 334.593 701.938 334.693 701.621 334.73L689.769 336.121C689.675 336.132 689.58 336.138 689.485 336.138V336.138ZM681.885 248.096L691.613 331.008L698.635 330.184L688.907 247.272L681.885 248.096Z" fill="#1F3969"/>
<path d="M723.674 262.439L711.81 261.149L702.264 348.978L714.127 350.267L723.674 262.439Z" fill="#FF5252"/>
<path d="M714.135 352.693C714.046 352.693 713.957 352.693 713.868 352.68L702.004 351.39C701.364 351.32 700.778 350.999 700.374 350.498C699.97 349.996 699.781 349.355 699.85 348.715L709.395 260.887C709.465 260.246 709.786 259.66 710.287 259.256C710.789 258.852 711.43 258.664 712.07 258.732L723.934 260.021C724.575 260.09 725.161 260.411 725.565 260.912C725.97 261.414 726.158 262.055 726.09 262.696L716.544 350.524C716.479 351.118 716.198 351.668 715.753 352.069C715.309 352.469 714.733 352.691 714.135 352.693ZM704.947 346.816L711.975 347.581L720.996 264.589L713.968 263.825L704.947 346.816Z" fill="#1F3969"/>
<path d="M723.675 262.439L711.811 261.149L710.84 270.083L722.704 271.373L723.675 262.439Z" fill="#2D425E"/>
<path d="M722.712 273.8C722.625 273.8 722.536 273.8 722.447 273.786L710.583 272.496C709.943 272.427 709.356 272.106 708.952 271.604C708.548 271.103 708.359 270.461 708.427 269.821L709.4 260.887C709.47 260.246 709.79 259.66 710.292 259.256C710.793 258.852 711.435 258.664 712.075 258.732L723.939 260.021C724.579 260.09 725.166 260.411 725.57 260.912C725.974 261.414 726.163 262.055 726.095 262.696L725.122 271.63C725.058 272.225 724.776 272.775 724.332 273.175C723.887 273.576 723.31 273.798 722.712 273.8V273.8ZM713.526 267.923L720.554 268.687L721 264.589L713.972 263.825L713.526 267.923Z" fill="#1F3969"/>
<path d="M730.879 378.888H683.139L675.375 305.703H738.642L730.879 378.888Z" fill="#6567C3"/>
<g style="mix-blend-mode:overlay">
<path d="M675.375 305.703L675.517 307.047H723.72L716.099 378.888H730.879L738.642 305.703H675.375Z" fill="#6567C3"/>
</g>
<path d="M730.877 381.32H683.139C682.538 381.321 681.958 381.099 681.511 380.697C681.065 380.295 680.782 379.742 680.719 379.145L672.956 305.958C672.92 305.619 672.956 305.276 673.061 304.952C673.166 304.627 673.338 304.329 673.567 304.075C673.795 303.822 674.073 303.619 674.385 303.48C674.696 303.341 675.034 303.27 675.375 303.27H738.642C738.984 303.27 739.321 303.341 739.632 303.48C739.944 303.619 740.223 303.822 740.451 304.075C740.679 304.329 740.851 304.627 740.956 304.952C741.061 305.276 741.097 305.619 741.061 305.958L733.297 379.144C733.234 379.741 732.952 380.295 732.505 380.697C732.058 381.099 731.478 381.321 730.877 381.32ZM685.325 376.456H728.691L735.938 308.135H678.078L685.325 376.456Z" fill="#1F3969"/>
</svg>
