<svg width="360" height="307" viewBox="0 0 360 307" fill="none" xmlns="http://www.w3.org/2000/svg">
<path d="M178 174.58C294.366 188.858 346 262.58 363 259.58L387 410.58L-27 404.58C-24 334.58 -38 55.5796 5 80.5796C33.0532 96.8896 15 154.58 178 174.58Z" fill="url(#paint0_linear)"/>
<path d="M285.639 186.079H278.827V320.922H285.639V186.079Z" fill="#1289CC"/>
<path d="M282.292 186.08H275.48V320.922H282.292V186.08Z" fill="black"/>
<path d="M307.593 186.079H300.811V320.922H307.593V186.079Z" fill="#1289CC"/>
<path d="M304.246 186.08H297.463V320.922H304.246V186.08Z" fill="black"/>
<path d="M141.427 186.079H134.615V320.922H141.427V186.079Z" fill="#125CAE"/>
<path d="M138.085 186.079H131.273V320.922H138.085V186.079Z" fill="black"/>
<path d="M163.38 186.079H156.598V320.922H163.38V186.079Z" fill="#1289CC"/>
<path d="M160.039 186.08H153.256V320.922H160.039V186.08Z" fill="black"/>
<path d="M320.747 180.485H106.354V193.842H320.747V180.485Z" fill="black"/>
<path fill-rule="evenodd" clip-rule="evenodd" d="M202.088 132.424L268.068 127.756L269.121 130.078L260.467 177.489H257.426L192.211 181.507L202.088 132.424Z" fill="url(#paint1_linear)"/>
<path fill-rule="evenodd" clip-rule="evenodd" d="M199.782 127.756H267.833L257.956 176.869H189.9L199.782 127.756Z" fill="black"/>
<path d="M258.156 176.78H239.478V180.479H258.156V176.78Z" fill="url(#paint2_linear)"/>
<path d="M239.478 176.78H176.569V180.479H239.478V176.78Z" fill="#431CA3"/>
<path fill-rule="evenodd" clip-rule="evenodd" d="M202.088 130.604L193.346 173.991H255.614L264.356 130.604H202.088Z" fill="#3F2759"/>
<path fill-rule="evenodd" clip-rule="evenodd" d="M213.547 180.484C215.653 180.744 220.095 180.071 223.254 178.021C226.383 175.965 228.866 174.015 228.866 174.015C228.866 174.015 235.684 174.907 236.119 173.342C236.307 171.25 227.283 168.775 226.03 168.627C224.742 168.48 214.165 169.974 213.083 171.061C212 172.142 213.547 180.484 213.547 180.484Z" fill="white"/>
<path fill-rule="evenodd" clip-rule="evenodd" d="M178.293 174.523C180.399 174.789 184.84 174.116 187.97 172.06C191.099 170.004 194.082 167.009 194.082 167.009C194.082 167.009 200.894 167.653 200.747 167.009C200.57 166.394 192.035 162.808 190.746 162.666C189.488 162.518 178.881 164.019 177.799 165.106C176.716 166.181 178.293 174.523 178.293 174.523Z" fill="white"/>
<path fill-rule="evenodd" clip-rule="evenodd" d="M190.658 166.246C191.329 167.097 195.6 170.299 194.782 171.528C193.964 172.792 192.005 173.318 189.87 171.764C187.735 170.211 186.393 168.385 186.976 167.771C187.564 167.156 190.658 166.246 190.658 166.246Z" fill="white"/>
<path fill-rule="evenodd" clip-rule="evenodd" d="M99.7774 123.94C93.2889 126.581 94.836 139.147 97.7891 148.162C100.713 157.178 131.026 178.458 140.003 180.81C148.98 183.131 183.793 172.208 183.793 172.208C186.158 167.363 184.117 162.223 179.817 163.34C179.817 163.34 145.88 168.681 140.791 162.785C136.697 158.052 106.648 121.151 99.7774 123.94Z" fill="url(#paint3_linear)"/>
<path fill-rule="evenodd" clip-rule="evenodd" d="M127.255 107.616C116.643 129.074 94.836 121.913 89.6946 101.395C84.5473 80.9005 83.2061 63.2003 101.095 60.0869C120.531 56.7075 137.897 86.1527 127.255 107.616Z" fill="url(#paint4_linear)"/>
<path fill-rule="evenodd" clip-rule="evenodd" d="M94.0476 108.089C96.0654 114.458 95.4477 131.543 95.4477 131.543C95.4477 131.543 124.155 139.939 123.278 136.063C119.772 120.354 117.99 106.618 114.772 103.741C112.113 101.389 105.566 109.288 94.0476 108.089Z" fill="white"/>
<path fill-rule="evenodd" clip-rule="evenodd" d="M152.539 301.497C152.539 301.497 158.704 308.982 166.686 312.332C174.669 315.681 178.264 317.117 176.975 319.173C175.687 321.229 165.457 320.26 157.739 320.526C150.05 320.792 144.85 321.377 144.585 318.913C144.321 316.479 145.55 302.944 145.55 302.944L152.539 301.497Z" fill="black"/>
<path fill-rule="evenodd" clip-rule="evenodd" d="M141.315 243.25C141.609 251.646 144.444 314.606 144.444 314.606C146.427 316.905 159.533 312.184 160.451 308.988C160.451 308.988 166.075 238.902 163.881 238.577C161.722 238.288 141.315 243.25 141.315 243.25Z" fill="url(#paint5_linear)"/>
<path fill-rule="evenodd" clip-rule="evenodd" d="M219.895 301.792C219.895 301.792 226.066 309.277 234.013 312.657C241.996 316.007 245.59 317.413 244.302 319.498C243.014 321.554 232.784 320.556 225.095 320.822C217.377 321.087 212.177 321.672 211.912 319.238C211.647 316.775 212.877 303.24 212.877 303.24L219.895 301.792Z" fill="black"/>
<path fill-rule="evenodd" clip-rule="evenodd" d="M98.7833 217.911C97.848 224.457 87.9357 234.708 100.013 244.952C112.084 255.196 189.817 246.535 190.811 247.918C191.805 249.271 211.042 315.693 211.042 315.693C211.042 315.693 227.683 315.168 226.813 308.326C220.389 290.508 221.448 233.621 208.441 227.394C195.453 221.173 98.7833 217.911 98.7833 217.911Z" fill="url(#paint6_linear)"/>
<path fill-rule="evenodd" clip-rule="evenodd" d="M130.644 125.641C119.508 122.675 86.2239 120.283 81.7648 129.842C71.4114 152.038 79.653 237.325 94.0654 238.731C103.331 239.641 149.321 238.229 150.868 221.468C152.892 199.419 132.573 167.534 130.644 125.641Z" fill="url(#paint7_linear)"/>
<path d="M92.1596 195.237H80.8767V251.486H92.1596V195.237Z" fill="white"/>
<path d="M89.7592 194.782H78.4763V251.031H89.7592V194.782Z" fill="black"/>
<path fill-rule="evenodd" clip-rule="evenodd" d="M130.644 125.641C124.155 128.282 125.673 140.877 128.626 149.893C131.579 158.879 161.892 180.159 170.869 182.511C179.846 184.832 215.742 180.283 215.742 180.283C218.083 175.439 216.065 170.299 211.736 171.416C211.736 171.416 176.716 170.388 171.628 164.486C167.569 159.753 137.485 122.852 130.644 125.641Z" fill="url(#paint8_linear)"/>
<path fill-rule="evenodd" clip-rule="evenodd" d="M119.361 80.546C117.284 77.9052 122.955 88.9412 121.231 93.5789C121.261 88.6162 109.278 82.6256 113.896 96.1016C114.455 97.744 115.149 104.769 115.149 104.769C115.031 107.663 100.289 116.407 95.4244 113.04C91.0124 110.458 84.0239 100.066 79.5531 88.4095C75.0528 76.7531 82.9415 71.0579 82.9415 71.0579C82.9415 71.0579 81.8591 68.0921 85.4239 62.515C88.2005 58.1136 129.597 49.3935 127.373 68.5883C126.902 72.5585 122.755 75.9969 119.361 80.546Z" fill="black"/>
<path fill-rule="evenodd" clip-rule="evenodd" d="M70.6995 149.397H113.637C116.743 149.397 119.308 152.859 119.308 157.089V189.264C119.308 193.494 116.743 196.956 113.637 196.956H70.6995C67.5699 196.956 65.011 193.494 65.011 189.264V157.089C65.011 152.859 67.5699 149.397 70.6995 149.397Z" fill="white"/>
<path fill-rule="evenodd" clip-rule="evenodd" d="M66.4817 149.491H109.419C112.525 149.491 115.09 152.953 115.09 157.183V189.358C115.09 193.588 112.525 197.05 109.419 197.05H66.4817C63.3522 197.05 60.7932 193.588 60.7932 189.358V157.183C60.7873 152.953 63.3522 149.491 66.4817 149.491Z" fill="black"/>
<path d="M129.432 253.938H119.32V311.274H129.432V253.938Z" fill="black"/>
<path fill-rule="evenodd" clip-rule="evenodd" d="M76.9468 244.952H171.775C175.369 244.952 178.293 247.888 178.293 251.468C178.293 255.078 175.369 258.014 171.775 258.014H76.9468C73.3819 258.014 70.4583 255.078 70.4583 251.468C70.4583 247.888 73.3819 244.952 76.9468 244.952Z" fill="black"/>
<path fill-rule="evenodd" clip-rule="evenodd" d="M93.1182 123.987C93.2652 122.108 94.5888 116.821 94.5888 116.821C94.5888 116.821 116.102 115.349 121.219 117.76C122.02 118.138 126.99 125.493 126.99 125.493C113.425 123.024 101.819 122.906 93.1182 123.987Z" fill="#BCD8FA"/>
<path fill-rule="evenodd" clip-rule="evenodd" d="M202.088 130.604H264.356L263.962 132.547L201.677 132.665L202.088 130.604Z" fill="#1E8191"/>
<path fill-rule="evenodd" clip-rule="evenodd" d="M255.297 137.363C255.297 137.658 255.061 137.894 254.767 137.894H205.535C205.241 137.894 205.006 137.658 205.006 137.363C205.006 137.067 205.241 136.831 205.535 136.831H254.767C255.061 136.831 255.297 137.067 255.297 137.363Z" fill="#1E8191"/>
<path fill-rule="evenodd" clip-rule="evenodd" d="M245.626 140.382C245.626 140.677 245.432 140.913 245.19 140.913H204.83C204.588 140.913 204.394 140.677 204.394 140.382C204.394 140.086 204.588 139.85 204.83 139.85H245.19C245.432 139.85 245.626 140.092 245.626 140.382Z" fill="#1E8191"/>
<path fill-rule="evenodd" clip-rule="evenodd" d="M245.025 144.115C245.025 144.411 244.831 144.647 244.59 144.647H204.229C203.988 144.647 203.794 144.411 203.794 144.115C203.794 143.82 203.988 143.583 204.229 143.583H244.59C244.831 143.583 245.025 143.82 245.025 144.115Z" fill="#1E8191"/>
<path fill-rule="evenodd" clip-rule="evenodd" d="M253.291 147.382C253.291 147.678 253.055 147.914 252.761 147.914H203.476C203.182 147.914 202.947 147.678 202.947 147.382C202.947 147.087 203.182 146.85 203.476 146.85H252.761C253.055 146.85 253.291 147.093 253.291 147.382Z" fill="#1E8191"/>
<path fill-rule="evenodd" clip-rule="evenodd" d="M251.467 155.163C251.467 155.459 251.232 155.695 250.938 155.695H201.653C201.359 155.695 201.123 155.459 201.123 155.163C201.123 154.868 201.359 154.631 201.653 154.631H250.938C251.226 154.631 251.467 154.868 251.467 155.163Z" fill="#1E8191"/>
<path fill-rule="evenodd" clip-rule="evenodd" d="M233.625 151.075C233.625 151.37 233.478 151.606 233.296 151.606H202.618C202.435 151.606 202.288 151.37 202.288 151.075C202.288 150.779 202.435 150.543 202.618 150.543H233.296C233.478 150.543 233.625 150.779 233.625 151.075Z" fill="#1E8191"/>
<path fill-rule="evenodd" clip-rule="evenodd" d="M223.371 158.554C223.371 158.85 223.266 159.086 223.136 159.086H200.988C200.859 159.086 200.753 158.85 200.753 158.554C200.753 158.259 200.859 158.023 200.988 158.023H223.13C223.266 158.023 223.371 158.259 223.371 158.554Z" fill="#1E8191"/>
<path fill-rule="evenodd" clip-rule="evenodd" d="M240.278 162.655C240.278 162.95 240.09 163.186 239.855 163.186H200.206C199.97 163.186 199.782 162.95 199.782 162.655C199.782 162.359 199.976 162.123 200.206 162.123H239.855C240.084 162.123 240.278 162.359 240.278 162.655Z" fill="#1E8191"/>
<path d="M1.60229 175.605L193.347 173.992L197.594 174.151L255.614 173.992L264.356 130.604L31.0566 9.86365" fill="url(#paint9_linear)"/>
<defs>
<linearGradient id="paint0_linear" x1="73" y1="245" x2="387" y2="254" gradientUnits="userSpaceOnUse">
<stop stop-color="#FFBA08"/>
<stop offset="1"/>
</linearGradient>
<linearGradient id="paint1_linear" x1="192.21" y1="154.632" x2="269.119" y2="154.632" gradientUnits="userSpaceOnUse">
<stop stop-color="#A1BAFF"/>
<stop offset="0.4332" stop-color="white"/>
</linearGradient>
<linearGradient id="paint2_linear" x1="239.479" y1="178.633" x2="258.158" y2="178.633" gradientUnits="userSpaceOnUse">
<stop stop-color="#A1BAFF"/>
<stop offset="0.4332" stop-color="white"/>
</linearGradient>
<linearGradient id="paint3_linear" x1="95.2401" y1="152.458" x2="184.789" y2="152.458" gradientUnits="userSpaceOnUse">
<stop stop-color="#311341"/>
<stop offset="0.2299" stop-color="#3113C2"/>
<stop offset="0.3479" stop-color="#2F18C5"/>
<stop offset="0.4931" stop-color="#2927CC"/>
<stop offset="0.6524" stop-color="#1F40D8"/>
<stop offset="0.8219" stop-color="#1263E9"/>
<stop offset="0.9978" stop-color="#008FFF"/>
<stop offset="1" stop-color="#0090FF"/>
</linearGradient>
<linearGradient id="paint4_linear" x1="105.592" y1="82.3182" x2="121.583" y2="124.595" gradientUnits="userSpaceOnUse">
<stop stop-color="#A1BAFF"/>
<stop offset="0.4332" stop-color="white"/>
</linearGradient>
<linearGradient id="paint5_linear" x1="153.027" y1="246.984" x2="155.787" y2="310.191" gradientUnits="userSpaceOnUse">
<stop offset="0.0414" stop-color="#100022"/>
<stop offset="1" stop-color="#090E96"/>
</linearGradient>
<linearGradient id="paint6_linear" x1="149.095" y1="230.063" x2="222.424" y2="313.301" gradientUnits="userSpaceOnUse">
<stop offset="0.0414" stop-color="#10003B"/>
<stop offset="1" stop-color="#090E96"/>
</linearGradient>
<linearGradient id="paint7_linear" x1="77.1317" y1="180.98" x2="151.015" y2="180.98" gradientUnits="userSpaceOnUse">
<stop stop-color="#7633FF"/>
<stop offset="0.1585" stop-color="#7137FF"/>
<stop offset="0.3535" stop-color="#6243FF"/>
<stop offset="0.5676" stop-color="#4957FF"/>
<stop offset="0.7937" stop-color="#2672FF"/>
<stop offset="1" stop-color="#0090FF"/>
</linearGradient>
<linearGradient id="paint8_linear" x1="128.993" y1="146.06" x2="214.563" y2="176.059" gradientUnits="userSpaceOnUse">
<stop stop-color="#7633FF"/>
<stop offset="0.0967" stop-color="#7137FF"/>
<stop offset="0.2157" stop-color="#6243FF"/>
<stop offset="0.3464" stop-color="#4957FF"/>
<stop offset="0.4844" stop-color="#2672FF"/>
<stop offset="0.6103" stop-color="#0090FF"/>
</linearGradient>
<linearGradient id="paint9_linear" x1="18.8759" y1="93.2332" x2="321.648" y2="151.834" gradientUnits="userSpaceOnUse">
<stop offset="0.00411293" stop-color="#7633FF" stop-opacity="0"/>
<stop offset="0.0919" stop-color="#7051FF" stop-opacity="0.0882"/>
<stop offset="0.2626" stop-color="#6685FF" stop-opacity="0.2596"/>
<stop offset="0.4302" stop-color="#5EB1FF" stop-opacity="0.4279"/>
<stop offset="0.591" stop-color="#57D3FF" stop-opacity="0.5893"/>
<stop offset="0.7432" stop-color="#53EBFF" stop-opacity="0.7421"/>
<stop offset="0.8833" stop-color="#50FAFF" stop-opacity="0.8829"/>
<stop offset="1" stop-color="#4FFFFF"/>
</linearGradient>
</defs>
</svg>
