<svg width="264" height="261" viewBox="0 0 264 261" fill="none" xmlns="http://www.w3.org/2000/svg">
<path d="M107.192 183.421L41.6567 248.942C33.1663 257.43 19.6346 257.43 11.4095 249.207C3.18439 240.984 3.18439 227.455 11.6748 218.967L77.2105 153.446" fill="#F9C13C"/>
<path d="M107.192 183.421L41.6564 248.942C33.166 257.43 19.6343 257.43 11.4092 249.207L92.0685 168.566L107.192 183.421Z" fill="#E6AE31"/>
<path d="M26.2673 260.614C19.1035 260.614 12.4704 257.961 7.69447 252.921C2.65327 247.881 0 241.249 0 234.087C0 226.925 2.91859 220.293 7.9598 215.253L73.4955 149.732L80.9246 157.159L15.3889 222.68C12.205 225.864 10.6131 229.843 10.6131 234.087C10.6131 238.331 12.205 242.31 15.1236 245.228C18.0422 248.146 22.0221 249.738 26.2673 249.738C30.5126 249.738 34.7578 247.881 37.6764 244.963L103.212 179.442L110.641 186.869L45.3709 252.656C40.3296 257.696 33.6965 260.614 26.2673 260.614C26.2673 260.614 26.5327 260.614 26.2673 260.614Z" fill="#B98915"/>
<path d="M163.176 196.684C215.929 196.684 258.693 153.929 258.693 101.188C258.693 48.4469 215.929 5.69177 163.176 5.69177C110.423 5.69177 67.6582 48.4469 67.6582 101.188C67.6582 153.929 110.423 196.684 163.176 196.684Z" fill="#9CE0FF"/>
<path d="M118.07 179.177C161.319 204.112 216.506 189.257 241.182 146.283C266.123 103.045 251.264 47.8693 208.281 23.1995C249.142 101.188 208.016 156.894 118.07 179.177Z" fill="#89D6FA"/>
<path d="M163.176 201.99C107.457 201.99 62.3516 156.894 62.3516 101.188C62.3516 45.4819 107.457 0.386475 163.176 0.386475C218.894 0.386475 264 45.4819 264 101.188C264 156.894 218.894 201.99 163.176 201.99ZM163.176 10.9972C113.56 10.9972 72.9646 51.583 72.9646 101.188C72.9646 150.793 113.56 191.379 163.176 191.379C212.792 191.379 253.387 150.793 253.387 101.188C253.387 51.583 212.792 10.9972 163.176 10.9972Z" fill="#61A1DD"/>
<path d="M106.662 67.2338C105.601 67.2338 104.539 66.9685 103.478 66.1727C101.09 64.3159 100.559 61.1327 102.417 58.7453L104.805 55.5621C106.662 53.1747 109.846 52.6441 112.234 54.501C114.622 56.3579 115.152 59.5411 113.295 61.9285L110.907 65.1117C109.846 66.438 108.254 67.2338 106.662 67.2338Z" fill="white"/>
<path d="M116.744 157.159C115.417 157.159 114.091 156.629 113.295 155.833C97.6405 141.774 88.8848 121.879 88.8848 101.188C88.8848 94.5563 89.6807 88.1899 91.538 82.3541C92.334 79.4361 95.2526 77.8445 98.1712 78.6403C101.09 79.4361 102.682 82.3541 101.886 85.272C100.559 90.3121 99.7632 95.6174 99.7632 101.188C99.7632 118.961 107.458 135.938 120.459 147.875C122.581 149.732 122.847 153.18 120.724 155.303C119.663 156.629 118.071 157.159 116.744 157.159Z" fill="white"/>
</svg>
