<svg width="25" height="21" viewBox="0 0 25 21" fill="none" xmlns="http://www.w3.org/2000/svg">
<path d="M24.8127 2.70081C24.1148 3.72164 23.271 4.59143 22.2814 5.31018C22.2918 5.45601 22.2971 5.67476 22.2971 5.96643C22.2971 7.3206 22.0991 8.67216 21.7033 10.0211C21.3075 11.3701 20.7059 12.6643 19.8986 13.9039C19.0913 15.1435 18.1304 16.2399 17.0158 17.193C15.9012 18.1461 14.5575 18.9065 12.9846 19.4742C11.4116 20.042 9.72935 20.3258 7.93768 20.3258C5.11477 20.3258 2.53143 19.5706 0.187683 18.0602C0.552266 18.1018 0.958516 18.1227 1.40643 18.1227C3.75018 18.1227 5.83872 17.4039 7.67206 15.9664C6.57831 15.9456 5.59914 15.6097 4.73456 14.9586C3.86997 14.3076 3.27622 13.4768 2.95331 12.4664C3.29706 12.5185 3.61477 12.5446 3.90643 12.5446C4.35435 12.5446 4.79706 12.4873 5.23456 12.3727C4.06789 12.1331 3.10175 11.5524 2.33612 10.6305C1.5705 9.70862 1.18768 8.63831 1.18768 7.41956V7.35706C1.89602 7.75289 2.65643 7.96643 3.46893 7.99768C2.78143 7.53935 2.23456 6.94039 1.82831 6.20081C1.42206 5.46122 1.21893 4.65914 1.21893 3.79456C1.21893 2.87789 1.4481 2.02893 1.90643 1.24768C3.16685 2.79976 4.7007 4.04195 6.508 4.97424C8.31529 5.90653 10.2502 6.42476 12.3127 6.52893C12.2294 6.1331 12.1877 5.74768 12.1877 5.37268C12.1877 3.97685 12.6799 2.78674 13.6642 1.80237C14.6486 0.817993 15.8387 0.325806 17.2346 0.325806C18.6929 0.325806 19.9221 0.857056 20.9221 1.91956C22.0575 1.70081 23.1252 1.29456 24.1252 0.700806C23.7398 1.89872 23.0002 2.82581 21.9064 3.48206C22.8752 3.37789 23.8439 3.11747 24.8127 2.70081Z" fill="#545454"/>
</svg>
