<svg width="44" height="44" viewBox="0 0 44 44" fill="none" xmlns="http://www.w3.org/2000/svg">
<path d="M38.6703 35.8316C40.9143 33.1318 42.4749 29.9312 43.2203 26.5007C43.9657 23.0701 43.8739 19.5105 42.9526 16.1229C42.0314 12.7354 40.3077 9.61951 37.9276 7.03896C35.5474 4.45841 32.5808 2.48908 29.2785 1.29756C25.9763 0.106049 22.4357 -0.2726 18.9562 0.19365C15.4767 0.6599 12.1607 1.95733 9.28862 3.97619C6.41659 5.99505 4.07304 8.67594 2.45624 11.7921C0.839434 14.9082 -0.00306655 18.3679 8.38695e-06 21.8785C0.00118835 26.9819 1.79961 31.9219 5.0797 35.8316L5.04845 35.8582C5.15782 35.9895 5.28282 36.102 5.39532 36.2316C5.53595 36.3926 5.68751 36.5441 5.83282 36.7004C6.27032 37.1754 6.72032 37.6316 7.1922 38.0598C7.33595 38.191 7.48438 38.3129 7.62969 38.4379C8.12969 38.8691 8.64376 39.2785 9.17657 39.6598C9.24532 39.7066 9.30782 39.7676 9.37657 39.816V39.7973C13.0361 42.3725 17.4017 43.7546 21.8766 43.7546C26.3514 43.7546 30.717 42.3725 34.3766 39.7973V39.816C34.4453 39.7676 34.5063 39.7066 34.5766 39.6598C35.1078 39.277 35.6234 38.8691 36.1234 38.4379C36.2688 38.3129 36.4172 38.1895 36.5609 38.0598C37.0328 37.6301 37.4828 37.1754 37.9203 36.7004C38.0656 36.5441 38.2156 36.3926 38.3578 36.2316C38.4688 36.102 38.5953 35.9895 38.7047 35.8566L38.6703 35.8316ZM21.875 9.37852C23.2657 9.37852 24.6251 9.7909 25.7814 10.5635C26.9376 11.3361 27.8389 12.4342 28.371 13.719C28.9032 15.0038 29.0425 16.4176 28.7712 17.7815C28.4999 19.1454 27.8302 20.3983 26.8469 21.3816C25.8635 22.365 24.6107 23.0346 23.2467 23.3059C21.8828 23.5772 20.4691 23.438 19.1843 22.9058C17.8995 22.3736 16.8013 21.4724 16.0287 20.3161C15.2561 19.1598 14.8438 17.8004 14.8438 16.4098C14.8438 14.545 15.5845 12.7565 16.9032 11.4379C18.2218 10.1193 20.0102 9.37852 21.875 9.37852ZM9.38595 35.8316C9.41305 33.78 10.2468 31.8216 11.7068 30.38C13.1668 28.9384 15.1357 28.1296 17.1875 28.1285H26.5625C28.6143 28.1296 30.5832 28.9384 32.0432 30.38C33.5032 31.8216 34.337 33.78 34.3641 35.8316C30.9373 38.9197 26.4879 40.6286 21.875 40.6286C17.2621 40.6286 12.8128 38.9197 9.38595 35.8316Z" fill="#505050" fill-opacity="0.69"/>
</svg>
